<svg viewBox="0 0 1050 620" width="1050" preserveAspectRatio="xMidYMin meet" xmlns="http://www.w3.org/2000/svg" style="font-family:'Arial Narrow',Arial,sans-serif;">

  <!-- RED HEADER -->
  <rect x="0" y="0" width="1050" height="24" fill="#cc2222"/>
  <text x="70" y="17" text-anchor="middle" fill="#fff" font-size="13" font-weight="bold" letter-spacing="1">DCO-1</text>
  <text x="265" y="17" text-anchor="middle" fill="#fff" font-size="13" font-weight="bold" letter-spacing="1">DCO-2</text>
  <text x="510" y="17" text-anchor="middle" fill="#fff" font-size="13" font-weight="bold" letter-spacing="1">VCF</text>
  <text x="680" y="17" text-anchor="middle" fill="#fff" font-size="13" font-weight="bold" letter-spacing="1">VCA</text>

  <!-- Section dividers -->
  <line x1="430" y1="24" x2="430" y2="424" stroke="#ccc" stroke-width="1.5"/>
  <line x1="635" y1="24" x2="635" y2="424" stroke="#ccc" stroke-width="1.5"/>

  <!-- DCO-1 + DCO-2 -->
  <g transform="translate(0,24)">
    <text x="70" y="14" text-anchor="middle" fill="#fff" font-size="11">Range</text>
    <text x="38" y="46" text-anchor="middle" fill="#ccc" font-size="11">16'</text>
    <circle cx="44" cy="50" r="1.8" fill="#ccc"/>
    <text x="70" y="38" text-anchor="middle" fill="#ccc" font-size="11">8'</text>
    <circle cx="70" cy="42" r="1.8" fill="#ccc"/>
    <text x="100" y="46" text-anchor="middle" fill="#ccc" font-size="11">4'</text>
    <circle cx="96" cy="50" r="1.8" fill="#ccc"/>
    <circle cx="70" cy="84" r="26" fill="#2a2a2a" stroke="#555" stroke-width="1.5"/>
    <line x1="70" y1="80" x2="62" y2="72" stroke="#ddd" stroke-width="2" stroke-linecap="round"/>
    <text x="70" y="130" text-anchor="middle" fill="#fff" font-size="11">Waveform</text>
    <!-- DCO-1 Waveform markers: arc at -60° / 0° / +60° (r=38 from knob centre 70,196) -->
    <!-- saw (lightning Z) -->
    <g transform="translate(37,177)"><polyline points="-5,-5 3,-5 -3,5 5,5" fill="none" stroke="#ccc" stroke-width="1.2" stroke-linecap="round" stroke-linejoin="round"/></g>
    <circle cx="45" cy="184" r="1.5" fill="#ccc"/>
    <!-- pulse (up, short right, down, long right, up) -->
    <g transform="translate(70,158)"><polyline points="-5,4 -5,-4 -2,-4 -2,4 3,4 3,-4" fill="none" stroke="#ccc" stroke-width="1.2" stroke-linecap="round" stroke-linejoin="round"/></g>
    <circle cx="70" cy="166" r="1.5" fill="#ccc"/>
    <!-- square (up, right, down, right, up — equal halves) -->
    <g transform="translate(103,177)"><polyline points="-5,4 -5,-4 0,-4 0,4 5,4 5,-4" fill="none" stroke="#ccc" stroke-width="1.2" stroke-linecap="round" stroke-linejoin="round"/></g>
    <circle cx="95" cy="184" r="1.5" fill="#ccc"/>
    <circle cx="70" cy="196" r="26" fill="#2a2a2a" stroke="#555" stroke-width="1.5"/>
    <line x1="70" y1="192" x2="62" y2="184" stroke="#ddd" stroke-width="2" stroke-linecap="round"/>
    <text x="65" y="244" text-anchor="middle" fill="#fff" font-size="11" font-weight="bold">Freq Mod</text>
    <text x="43" y="258" text-anchor="middle" fill="#ccc" font-size="11">LFO</text>
    <text x="87" y="258" text-anchor="middle" fill="#ccc" font-size="11">ENV</text>
    <text x="65" y="278" text-anchor="middle" fill="#ccc" font-size="11">On</text>
    <text x="65" y="306" text-anchor="middle" fill="#ccc" font-size="11">Off</text>
    <rect x="30" y="260" width="26" height="48" fill="#111" stroke="#777" stroke-width="1" rx="2"/>
    <rect x="32" y="262" width="22" height="17" fill="#d0d0d0" rx="1"/>
    <rect x="32" y="281" width="22" height="14" fill="#999" rx="1"/>
    <rect x="32" y="296" width="22" height="9" fill="#555" rx="1"/>
    <rect x="74" y="260" width="26" height="48" fill="#111" stroke="#777" stroke-width="1" rx="2"/>
    <rect x="76" y="262" width="22" height="17" fill="#d0d0d0" rx="1"/>
    <rect x="76" y="281" width="22" height="14" fill="#999" rx="1"/>
    <rect x="76" y="296" width="22" height="9" fill="#555" rx="1"/>
    <line x1="140" y1="0" x2="140" y2="278" stroke="#ccc" stroke-width="1.5"/>
    <text x="218" y="14" text-anchor="middle" fill="#fff" font-size="11">Range</text>
    <text x="186" y="46" text-anchor="middle" fill="#ccc" font-size="11">16'</text>
    <circle cx="192" cy="50" r="1.8" fill="#ccc"/>
    <text x="218" y="38" text-anchor="middle" fill="#ccc" font-size="11">8'</text>
    <circle cx="218" cy="42" r="1.8" fill="#ccc"/>
    <text x="248" y="46" text-anchor="middle" fill="#ccc" font-size="11">4'</text>
    <circle cx="244" cy="50" r="1.8" fill="#ccc"/>
    <circle cx="218" cy="84" r="26" fill="#2a2a2a" stroke="#555" stroke-width="1.5"/>
    <line x1="218" y1="80" x2="210" y2="72" stroke="#ddd" stroke-width="2" stroke-linecap="round"/>
    <text x="368" y="14" text-anchor="middle" fill="#fff" font-size="11">Tune</text>
    <line x1="368" y1="51" x2="368" y2="56" stroke="#ccc" stroke-width="1.5"/>
    <path d="M 358,101.32 A 20,20 0 1,1 378,101.32" fill="none" stroke="#ccc" stroke-width="1.5" stroke-linecap="round"/>
    <text x="348" y="118" text-anchor="middle" fill="#ccc" font-size="11">&#9837;</text>
    <text x="388" y="118" text-anchor="middle" fill="#ccc" font-size="11">&#9839;</text>
    <circle cx="368" cy="84" r="16" fill="#2a2a2a" stroke="#555" stroke-width="1.5"/>
    <line x1="368" y1="78" x2="368" y2="70" stroke="#ddd" stroke-width="2" stroke-linecap="round"/>
    <text x="218" y="130" text-anchor="middle" fill="#fff" font-size="11">Waveform</text>
    <!-- DCO-2 Waveform markers: arc at -90° / -30° / +30° / +90° (r=38 from knob centre 218,196) -->
    <!-- saw at -90° -->
    <g transform="translate(180,196)"><polyline points="-5,-5 3,-5 -3,5 5,5" fill="none" stroke="#ccc" stroke-width="1.2" stroke-linecap="round" stroke-linejoin="round"/></g>
    <circle cx="188" cy="196" r="1.5" fill="#ccc"/>
    <!-- pulse at -30° -->
    <g transform="translate(199,163)"><polyline points="-5,4 -5,-4 -2,-4 -2,4 3,4 3,-4" fill="none" stroke="#ccc" stroke-width="1.2" stroke-linecap="round" stroke-linejoin="round"/></g>
    <circle cx="203" cy="171" r="1.5" fill="#ccc"/>
    <!-- square at +30° -->
    <g transform="translate(237,163)"><polyline points="-5,4 -5,-4 0,-4 0,4 5,4 5,-4" fill="none" stroke="#ccc" stroke-width="1.2" stroke-linecap="round" stroke-linejoin="round"/></g>
    <circle cx="233" cy="171" r="1.5" fill="#ccc"/>
    <g transform="translate(256,196)">
      <circle cx="0" cy="0" r="1.5" fill="#ccc"/>
      <text x="5" y="4" text-anchor="start" fill="#ccc" font-size="11">Noise</text>
    </g>
    <circle cx="218" cy="196" r="26" fill="#2a2a2a" stroke="#555" stroke-width="1.5"/>
    <line x1="218" y1="192" x2="210" y2="184" stroke="#ddd" stroke-width="2" stroke-linecap="round"/>
    <text x="368" y="130" text-anchor="middle" fill="#fff" font-size="11">Fine Tune</text>
    <line x1="368" y1="157" x2="368" y2="162" stroke="#ccc" stroke-width="1.5"/>
    <path d="M 358,213.32 A 20,20 0 1,1 378,213.32" fill="none" stroke="#ccc" stroke-width="1.5" stroke-linecap="round"/>
    <text x="348" y="230" text-anchor="middle" fill="#ccc" font-size="11">&#9837;</text>
    <text x="388" y="230" text-anchor="middle" fill="#ccc" font-size="11">&#9839;</text>
    <circle cx="368" cy="196" r="16" fill="#2a2a2a" stroke="#555" stroke-width="1.5"/>
    <line x1="368" y1="190" x2="368" y2="182" stroke="#ddd" stroke-width="2" stroke-linecap="round"/>
    <text x="218" y="244" text-anchor="middle" fill="#fff" font-size="11" font-weight="bold">Cross Mod</text>
    <text x="218" y="256" text-anchor="middle" fill="#ccc" font-size="11">Sync</text>
    <circle cx="218" cy="261" r="1.8" fill="#ccc"/>
    <text x="183" y="272" text-anchor="end" fill="#ccc" font-size="11">Off</text>
    <circle cx="187" cy="268" r="1.8" fill="#ccc"/>
    <circle cx="249" cy="268" r="1.8" fill="#ccc"/>
    <text x="253" y="272" text-anchor="start" fill="#ccc" font-size="11">Metal</text>
    <circle cx="218" cy="295" r="26" fill="#2a2a2a" stroke="#555" stroke-width="1.5"/>
    <line x1="218" y1="291" x2="210" y2="283" stroke="#ddd" stroke-width="2" stroke-linecap="round"/>
    <text x="381" y="244" text-anchor="middle" fill="#fff" font-size="11" font-weight="bold">Freq Mod</text>
    <text x="359" y="258" text-anchor="middle" fill="#ccc" font-size="11">LFO</text>
    <text x="403" y="258" text-anchor="middle" fill="#ccc" font-size="11">ENV</text>
    <text x="381" y="278" text-anchor="middle" fill="#ccc" font-size="11">On</text>
    <text x="381" y="306" text-anchor="middle" fill="#ccc" font-size="11">Off</text>
    <rect x="346" y="260" width="26" height="48" fill="#111" stroke="#777" stroke-width="1" rx="2"/>
    <rect x="348" y="262" width="22" height="17" fill="#d0d0d0" rx="1"/>
    <rect x="348" y="281" width="22" height="14" fill="#999" rx="1"/>
    <rect x="348" y="296" width="22" height="9" fill="#555" rx="1"/>
    <rect x="390" y="260" width="26" height="48" fill="#111" stroke="#777" stroke-width="1" rx="2"/>
    <rect x="392" y="262" width="22" height="17" fill="#d0d0d0" rx="1"/>
    <rect x="392" y="281" width="22" height="14" fill="#999" rx="1"/>
    <rect x="392" y="296" width="22" height="9" fill="#555" rx="1"/>
    <line x1="43" y1="326" x2="403" y2="326" stroke="#ccc" stroke-width="1.5"/>
    <line x1="43" y1="308" x2="43" y2="326" stroke="#ccc" stroke-width="1.5"/>
    <line x1="87" y1="308" x2="87" y2="326" stroke="#ccc" stroke-width="1.5"/>
    <line x1="359" y1="308" x2="359" y2="326" stroke="#ccc" stroke-width="1.5"/>
    <line x1="403" y1="308" x2="403" y2="326" stroke="#ccc" stroke-width="1.5"/>
    <line x1="65" y1="326" x2="65" y2="338" stroke="#ccc" stroke-width="1.5"/>
    <text x="65" y="352" text-anchor="middle" fill="#ccc" font-size="13" letter-spacing="1">LFO</text>
    <line x1="218" y1="326" x2="218" y2="338" stroke="#ccc" stroke-width="1.5"/>
    <text x="218" y="352" text-anchor="middle" fill="#ccc" font-size="13" letter-spacing="1">ENV</text>
    <g transform="translate(65,390)">
    <line x1="-18.38" y1="18.38" x2="-22.63" y2="22.63" stroke="#aaa" stroke-width="1" stroke-linecap="round"/>
    <line x1="-24.73" y1="8.03" x2="-30.43" y2="9.89" stroke="#aaa" stroke-width="1" stroke-linecap="round"/>
    <line x1="-25.68" y1="-4.07" x2="-31.61" y2="-5.01" stroke="#aaa" stroke-width="1" stroke-linecap="round"/>
    <line x1="-21.03" y1="-15.28" x2="-25.89" y2="-18.81" stroke="#aaa" stroke-width="1" stroke-linecap="round"/>
    <line x1="-11.80" y1="-23.17" x2="-14.53" y2="-28.51" stroke="#aaa" stroke-width="1" stroke-linecap="round"/>
    <line x1="0.00" y1="-26.00" x2="0.00" y2="-32.00" stroke="#aaa" stroke-width="1" stroke-linecap="round"/>
    <line x1="11.80" y1="-23.17" x2="14.53" y2="-28.51" stroke="#aaa" stroke-width="1" stroke-linecap="round"/>
    <line x1="21.03" y1="-15.28" x2="25.89" y2="-18.81" stroke="#aaa" stroke-width="1" stroke-linecap="round"/>
    <line x1="25.68" y1="-4.07" x2="31.61" y2="-5.01" stroke="#aaa" stroke-width="1" stroke-linecap="round"/>
    <line x1="24.73" y1="8.03" x2="30.43" y2="9.89" stroke="#aaa" stroke-width="1" stroke-linecap="round"/>
    <line x1="18.38" y1="18.38" x2="22.63" y2="22.63" stroke="#aaa" stroke-width="1" stroke-linecap="round"/>
      <circle cx="0" cy="0" r="18" fill="#2a2a2a" stroke="#555" stroke-width="1.5"/>
      <line x1="0" y1="-5" x2="-7" y2="-13" stroke="#ddd" stroke-width="2" stroke-linecap="round"/>
      <text x="-20" y="26" text-anchor="middle" fill="#ccc" font-size="9">0</text>
      <text x="0" y="-26" text-anchor="middle" fill="#ccc" font-size="9">5</text>
      <text x="20" y="26" text-anchor="middle" fill="#ccc" font-size="9">10</text>
    </g>
    <g transform="translate(218,390)">
    <line x1="-18.38" y1="18.38" x2="-22.63" y2="22.63" stroke="#aaa" stroke-width="1" stroke-linecap="round"/>
    <line x1="-24.73" y1="8.03" x2="-30.43" y2="9.89" stroke="#aaa" stroke-width="1" stroke-linecap="round"/>
    <line x1="-25.68" y1="-4.07" x2="-31.61" y2="-5.01" stroke="#aaa" stroke-width="1" stroke-linecap="round"/>
    <line x1="-21.03" y1="-15.28" x2="-25.89" y2="-18.81" stroke="#aaa" stroke-width="1" stroke-linecap="round"/>
    <line x1="-11.80" y1="-23.17" x2="-14.53" y2="-28.51" stroke="#aaa" stroke-width="1" stroke-linecap="round"/>
    <line x1="0.00" y1="-26.00" x2="0.00" y2="-32.00" stroke="#aaa" stroke-width="1" stroke-linecap="round"/>
    <line x1="11.80" y1="-23.17" x2="14.53" y2="-28.51" stroke="#aaa" stroke-width="1" stroke-linecap="round"/>
    <line x1="21.03" y1="-15.28" x2="25.89" y2="-18.81" stroke="#aaa" stroke-width="1" stroke-linecap="round"/>
    <line x1="25.68" y1="-4.07" x2="31.61" y2="-5.01" stroke="#aaa" stroke-width="1" stroke-linecap="round"/>
    <line x1="24.73" y1="8.03" x2="30.43" y2="9.89" stroke="#aaa" stroke-width="1" stroke-linecap="round"/>
    <line x1="18.38" y1="18.38" x2="22.63" y2="22.63" stroke="#aaa" stroke-width="1" stroke-linecap="round"/>
      <circle cx="0" cy="0" r="18" fill="#2a2a2a" stroke="#555" stroke-width="1.5"/>
      <line x1="0" y1="-5" x2="-7" y2="-13" stroke="#ddd" stroke-width="2" stroke-linecap="round"/>
      <text x="-20" y="26" text-anchor="middle" fill="#ccc" font-size="9">0</text>
      <text x="0" y="-26" text-anchor="middle" fill="#ccc" font-size="9">5</text>
      <text x="20" y="26" text-anchor="middle" fill="#ccc" font-size="9">10</text>
    </g>
    <line x1="356" y1="390" x2="242" y2="390" stroke="#ccc" stroke-width="1.5"/>
    <polygon points="240,390 250,385 250,395" fill="#ccc"/>
    <rect x="367" y="370" width="26" height="48" fill="#111" stroke="#777" stroke-width="1" rx="2"/>
    <rect x="369" y="372" width="22" height="17" fill="#d0d0d0" rx="1"/>
    <rect x="369" y="391" width="22" height="14" fill="#999" rx="1"/>
    <rect x="369" y="406" width="22" height="9" fill="#555" rx="1"/>
    <polyline points="397,378 401,378 404,372 407,378 412,378" fill="none" stroke="#ccc" stroke-width="1.1" stroke-linecap="round" stroke-linejoin="round"/>
    <polyline points="397,400 401,400 404,406 407,400 412,400" fill="none" stroke="#ccc" stroke-width="1.1" stroke-linecap="round" stroke-linejoin="round"/>
  </g>

  <!-- VCF + VCA -->
  <g transform="translate(430,24)">
    <text x="55" y="14" text-anchor="middle" fill="#fff" font-size="11">Source Mix</text>
    <g transform="translate(55,58)">
      <line x1="0" y1="-18" x2="0" y2="-23" stroke="#aaa" stroke-width="1.2" transform="rotate(-140)"/>
      <line x1="0" y1="-18" x2="0" y2="-21" stroke="#666" stroke-width="0.9" transform="rotate(-112)"/>
      <line x1="0" y1="-18" x2="0" y2="-21" stroke="#666" stroke-width="0.9" transform="rotate(-84)"/>
      <line x1="0" y1="-18" x2="0" y2="-21" stroke="#666" stroke-width="0.9" transform="rotate(-56)"/>
      <line x1="0" y1="-18" x2="0" y2="-21" stroke="#666" stroke-width="0.9" transform="rotate(-28)"/>
      <line x1="0" y1="-18" x2="0" y2="-23" stroke="#aaa" stroke-width="1.2" transform="rotate(0)"/>
      <line x1="0" y1="-18" x2="0" y2="-21" stroke="#666" stroke-width="0.9" transform="rotate(28)"/>
      <line x1="0" y1="-18" x2="0" y2="-21" stroke="#666" stroke-width="0.9" transform="rotate(56)"/>
      <line x1="0" y1="-18" x2="0" y2="-21" stroke="#666" stroke-width="0.9" transform="rotate(84)"/>
      <line x1="0" y1="-18" x2="0" y2="-21" stroke="#666" stroke-width="0.9" transform="rotate(112)"/>
      <line x1="0" y1="-18" x2="0" y2="-23" stroke="#aaa" stroke-width="1.2" transform="rotate(140)"/>
      <circle cx="0" cy="0" r="16" fill="#2a2a2a" stroke="#555" stroke-width="1.5"/>
      <line x1="0" y1="-4" x2="-6" y2="-10" stroke="#ddd" stroke-width="2" stroke-linecap="round"/>
      <text x="-20" y="24" text-anchor="middle" fill="#ccc" font-size="9">Dco-1</text>
      <text x="20" y="24" text-anchor="middle" fill="#ccc" font-size="9">Dco-2</text>
    </g>
    <text x="140" y="14" text-anchor="middle" fill="#fff" font-size="11">HPF</text>
    <g transform="translate(140,58)">
    <line x1="-18.38" y1="18.38" x2="-22.63" y2="22.63" stroke="#aaa" stroke-width="1" stroke-linecap="round"/>
    <line x1="-24.73" y1="8.03" x2="-30.43" y2="9.89" stroke="#aaa" stroke-width="1" stroke-linecap="round"/>
    <line x1="-25.68" y1="-4.07" x2="-31.61" y2="-5.01" stroke="#aaa" stroke-width="1" stroke-linecap="round"/>
    <line x1="-21.03" y1="-15.28" x2="-25.89" y2="-18.81" stroke="#aaa" stroke-width="1" stroke-linecap="round"/>
    <line x1="-11.80" y1="-23.17" x2="-14.53" y2="-28.51" stroke="#aaa" stroke-width="1" stroke-linecap="round"/>
    <line x1="0.00" y1="-26.00" x2="0.00" y2="-32.00" stroke="#aaa" stroke-width="1" stroke-linecap="round"/>
    <line x1="11.80" y1="-23.17" x2="14.53" y2="-28.51" stroke="#aaa" stroke-width="1" stroke-linecap="round"/>
    <line x1="21.03" y1="-15.28" x2="25.89" y2="-18.81" stroke="#aaa" stroke-width="1" stroke-linecap="round"/>
    <line x1="25.68" y1="-4.07" x2="31.61" y2="-5.01" stroke="#aaa" stroke-width="1" stroke-linecap="round"/>
    <line x1="24.73" y1="8.03" x2="30.43" y2="9.89" stroke="#aaa" stroke-width="1" stroke-linecap="round"/>
    <line x1="18.38" y1="18.38" x2="22.63" y2="22.63" stroke="#aaa" stroke-width="1" stroke-linecap="round"/>
      <circle cx="0" cy="0" r="16" fill="#2a2a2a" stroke="#555" stroke-width="1.5"/>
      <line x1="0" y1="-4" x2="-6" y2="-10" stroke="#ddd" stroke-width="2" stroke-linecap="round"/>
      <text x="-20" y="24" text-anchor="middle" fill="#ccc" font-size="9">0</text>
      <text x="0" y="-25" text-anchor="middle" fill="#ccc" font-size="9">5</text>
      <text x="20" y="24" text-anchor="middle" fill="#ccc" font-size="9">10</text>
    </g>
    <line x1="205" y1="0" x2="205" y2="400" stroke="#ccc" stroke-width="1.5"/>
    <text x="261" y="14" text-anchor="middle" fill="#fff" font-size="11">Mode</text>
    <rect x="248" y="35" width="26" height="48" fill="#111" stroke="#777" stroke-width="1" rx="2"/>
    <rect x="250" y="37" width="22" height="17" fill="#d0d0d0" rx="1"/>
    <rect x="250" y="56" width="22" height="14" fill="#999" rx="1"/>
    <rect x="250" y="71" width="22" height="9" fill="#555" rx="1"/>
    <polyline points="280,42 284,42 288,34 292,41 297,41" fill="none" stroke="#ccc" stroke-width="1.2" stroke-linecap="round" stroke-linejoin="round"/>
    <text x="299" y="42" fill="#ccc" font-size="11" text-anchor="start">ENV</text>
    <polyline points="280,70 284,70 284,62 293,62 293,70 297,70" fill="none" stroke="#ccc" stroke-width="1.2" stroke-linecap="round" stroke-linejoin="round"/>
    <text x="299" y="74" fill="#ccc" font-size="11" text-anchor="start">Gate</text>
    <text x="55" y="112" text-anchor="middle" fill="#fff" font-size="11">Cutoff Freq</text>
    <g transform="translate(55,166)">
    <line x1="-18.38" y1="18.38" x2="-22.63" y2="22.63" stroke="#aaa" stroke-width="1" stroke-linecap="round"/>
    <line x1="-24.73" y1="8.03" x2="-30.43" y2="9.89" stroke="#aaa" stroke-width="1" stroke-linecap="round"/>
    <line x1="-25.68" y1="-4.07" x2="-31.61" y2="-5.01" stroke="#aaa" stroke-width="1" stroke-linecap="round"/>
    <line x1="-21.03" y1="-15.28" x2="-25.89" y2="-18.81" stroke="#aaa" stroke-width="1" stroke-linecap="round"/>
    <line x1="-11.80" y1="-23.17" x2="-14.53" y2="-28.51" stroke="#aaa" stroke-width="1" stroke-linecap="round"/>
    <line x1="0.00" y1="-26.00" x2="0.00" y2="-32.00" stroke="#aaa" stroke-width="1" stroke-linecap="round"/>
    <line x1="11.80" y1="-23.17" x2="14.53" y2="-28.51" stroke="#aaa" stroke-width="1" stroke-linecap="round"/>
    <line x1="21.03" y1="-15.28" x2="25.89" y2="-18.81" stroke="#aaa" stroke-width="1" stroke-linecap="round"/>
    <line x1="25.68" y1="-4.07" x2="31.61" y2="-5.01" stroke="#aaa" stroke-width="1" stroke-linecap="round"/>
    <line x1="24.73" y1="8.03" x2="30.43" y2="9.89" stroke="#aaa" stroke-width="1" stroke-linecap="round"/>
    <line x1="18.38" y1="18.38" x2="22.63" y2="22.63" stroke="#aaa" stroke-width="1" stroke-linecap="round"/>
      <circle cx="0" cy="0" r="16" fill="#2a2a2a" stroke="#555" stroke-width="1.5"/>
      <line x1="0" y1="-4" x2="-6" y2="-10" stroke="#ddd" stroke-width="2" stroke-linecap="round"/>
      <text x="-20" y="24" text-anchor="middle" fill="#ccc" font-size="9">0</text>
      <text x="0" y="-25" text-anchor="middle" fill="#ccc" font-size="9">5</text>
      <text x="20" y="24" text-anchor="middle" fill="#ccc" font-size="9">10</text>
    </g>
    <text x="140" y="112" text-anchor="middle" fill="#fff" font-size="11">Resonance</text>
    <g transform="translate(140,166)">
    <line x1="-18.38" y1="18.38" x2="-22.63" y2="22.63" stroke="#aaa" stroke-width="1" stroke-linecap="round"/>
    <line x1="-24.73" y1="8.03" x2="-30.43" y2="9.89" stroke="#aaa" stroke-width="1" stroke-linecap="round"/>
    <line x1="-25.68" y1="-4.07" x2="-31.61" y2="-5.01" stroke="#aaa" stroke-width="1" stroke-linecap="round"/>
    <line x1="-21.03" y1="-15.28" x2="-25.89" y2="-18.81" stroke="#aaa" stroke-width="1" stroke-linecap="round"/>
    <line x1="-11.80" y1="-23.17" x2="-14.53" y2="-28.51" stroke="#aaa" stroke-width="1" stroke-linecap="round"/>
    <line x1="0.00" y1="-26.00" x2="0.00" y2="-32.00" stroke="#aaa" stroke-width="1" stroke-linecap="round"/>
    <line x1="11.80" y1="-23.17" x2="14.53" y2="-28.51" stroke="#aaa" stroke-width="1" stroke-linecap="round"/>
    <line x1="21.03" y1="-15.28" x2="25.89" y2="-18.81" stroke="#aaa" stroke-width="1" stroke-linecap="round"/>
    <line x1="25.68" y1="-4.07" x2="31.61" y2="-5.01" stroke="#aaa" stroke-width="1" stroke-linecap="round"/>
    <line x1="24.73" y1="8.03" x2="30.43" y2="9.89" stroke="#aaa" stroke-width="1" stroke-linecap="round"/>
    <line x1="18.38" y1="18.38" x2="22.63" y2="22.63" stroke="#aaa" stroke-width="1" stroke-linecap="round"/>
      <circle cx="0" cy="0" r="16" fill="#2a2a2a" stroke="#555" stroke-width="1.5"/>
      <line x1="0" y1="-4" x2="-6" y2="-10" stroke="#ddd" stroke-width="2" stroke-linecap="round"/>
      <text x="-20" y="24" text-anchor="middle" fill="#ccc" font-size="9">0</text>
      <text x="0" y="-25" text-anchor="middle" fill="#ccc" font-size="9">5</text>
      <text x="20" y="24" text-anchor="middle" fill="#ccc" font-size="9">10</text>
    </g>
    <text x="261" y="112" text-anchor="middle" fill="#fff" font-size="11">Level</text>
    <g transform="translate(261,166)">
    <line x1="-18.38" y1="18.38" x2="-22.63" y2="22.63" stroke="#aaa" stroke-width="1" stroke-linecap="round"/>
    <line x1="-24.73" y1="8.03" x2="-30.43" y2="9.89" stroke="#aaa" stroke-width="1" stroke-linecap="round"/>
    <line x1="-25.68" y1="-4.07" x2="-31.61" y2="-5.01" stroke="#aaa" stroke-width="1" stroke-linecap="round"/>
    <line x1="-21.03" y1="-15.28" x2="-25.89" y2="-18.81" stroke="#aaa" stroke-width="1" stroke-linecap="round"/>
    <line x1="-11.80" y1="-23.17" x2="-14.53" y2="-28.51" stroke="#aaa" stroke-width="1" stroke-linecap="round"/>
    <line x1="0.00" y1="-26.00" x2="0.00" y2="-32.00" stroke="#aaa" stroke-width="1" stroke-linecap="round"/>
    <line x1="11.80" y1="-23.17" x2="14.53" y2="-28.51" stroke="#aaa" stroke-width="1" stroke-linecap="round"/>
    <line x1="21.03" y1="-15.28" x2="25.89" y2="-18.81" stroke="#aaa" stroke-width="1" stroke-linecap="round"/>
    <line x1="25.68" y1="-4.07" x2="31.61" y2="-5.01" stroke="#aaa" stroke-width="1" stroke-linecap="round"/>
    <line x1="24.73" y1="8.03" x2="30.43" y2="9.89" stroke="#aaa" stroke-width="1" stroke-linecap="round"/>
    <line x1="18.38" y1="18.38" x2="22.63" y2="22.63" stroke="#aaa" stroke-width="1" stroke-linecap="round"/>
      <circle cx="0" cy="0" r="16" fill="#2a2a2a" stroke="#555" stroke-width="1.5"/>
      <line x1="0" y1="-4" x2="-6" y2="-10" stroke="#ddd" stroke-width="2" stroke-linecap="round"/>
      <text x="-20" y="24" text-anchor="middle" fill="#ccc" font-size="9">0</text>
      <text x="0" y="-25" text-anchor="middle" fill="#ccc" font-size="9">5</text>
      <text x="20" y="24" text-anchor="middle" fill="#ccc" font-size="9">10</text>
    </g>
    <text x="55" y="220" text-anchor="middle" fill="#fff" font-size="11">LFO Mod</text>
    <g transform="translate(55,274)">
    <line x1="-18.38" y1="18.38" x2="-22.63" y2="22.63" stroke="#aaa" stroke-width="1" stroke-linecap="round"/>
    <line x1="-24.73" y1="8.03" x2="-30.43" y2="9.89" stroke="#aaa" stroke-width="1" stroke-linecap="round"/>
    <line x1="-25.68" y1="-4.07" x2="-31.61" y2="-5.01" stroke="#aaa" stroke-width="1" stroke-linecap="round"/>
    <line x1="-21.03" y1="-15.28" x2="-25.89" y2="-18.81" stroke="#aaa" stroke-width="1" stroke-linecap="round"/>
    <line x1="-11.80" y1="-23.17" x2="-14.53" y2="-28.51" stroke="#aaa" stroke-width="1" stroke-linecap="round"/>
    <line x1="0.00" y1="-26.00" x2="0.00" y2="-32.00" stroke="#aaa" stroke-width="1" stroke-linecap="round"/>
    <line x1="11.80" y1="-23.17" x2="14.53" y2="-28.51" stroke="#aaa" stroke-width="1" stroke-linecap="round"/>
    <line x1="21.03" y1="-15.28" x2="25.89" y2="-18.81" stroke="#aaa" stroke-width="1" stroke-linecap="round"/>
    <line x1="25.68" y1="-4.07" x2="31.61" y2="-5.01" stroke="#aaa" stroke-width="1" stroke-linecap="round"/>
    <line x1="24.73" y1="8.03" x2="30.43" y2="9.89" stroke="#aaa" stroke-width="1" stroke-linecap="round"/>
    <line x1="18.38" y1="18.38" x2="22.63" y2="22.63" stroke="#aaa" stroke-width="1" stroke-linecap="round"/>
      <circle cx="0" cy="0" r="16" fill="#2a2a2a" stroke="#555" stroke-width="1.5"/>
      <line x1="0" y1="-4" x2="-6" y2="-10" stroke="#ddd" stroke-width="2" stroke-linecap="round"/>
      <text x="-20" y="24" text-anchor="middle" fill="#ccc" font-size="9">0</text>
      <text x="0" y="-25" text-anchor="middle" fill="#ccc" font-size="9">5</text>
      <text x="20" y="24" text-anchor="middle" fill="#ccc" font-size="9">10</text>
    </g>
    <text x="140" y="220" text-anchor="middle" fill="#fff" font-size="11">ENV Mod</text>
    <g transform="translate(140,274)">
    <line x1="-18.38" y1="18.38" x2="-22.63" y2="22.63" stroke="#aaa" stroke-width="1" stroke-linecap="round"/>
    <line x1="-24.73" y1="8.03" x2="-30.43" y2="9.89" stroke="#aaa" stroke-width="1" stroke-linecap="round"/>
    <line x1="-25.68" y1="-4.07" x2="-31.61" y2="-5.01" stroke="#aaa" stroke-width="1" stroke-linecap="round"/>
    <line x1="-21.03" y1="-15.28" x2="-25.89" y2="-18.81" stroke="#aaa" stroke-width="1" stroke-linecap="round"/>
    <line x1="-11.80" y1="-23.17" x2="-14.53" y2="-28.51" stroke="#aaa" stroke-width="1" stroke-linecap="round"/>
    <line x1="0.00" y1="-26.00" x2="0.00" y2="-32.00" stroke="#aaa" stroke-width="1" stroke-linecap="round"/>
    <line x1="11.80" y1="-23.17" x2="14.53" y2="-28.51" stroke="#aaa" stroke-width="1" stroke-linecap="round"/>
    <line x1="21.03" y1="-15.28" x2="25.89" y2="-18.81" stroke="#aaa" stroke-width="1" stroke-linecap="round"/>
    <line x1="25.68" y1="-4.07" x2="31.61" y2="-5.01" stroke="#aaa" stroke-width="1" stroke-linecap="round"/>
    <line x1="24.73" y1="8.03" x2="30.43" y2="9.89" stroke="#aaa" stroke-width="1" stroke-linecap="round"/>
    <line x1="18.38" y1="18.38" x2="22.63" y2="22.63" stroke="#aaa" stroke-width="1" stroke-linecap="round"/>
      <circle cx="0" cy="0" r="16" fill="#2a2a2a" stroke="#555" stroke-width="1.5"/>
      <line x1="0" y1="-4" x2="-6" y2="-10" stroke="#ddd" stroke-width="2" stroke-linecap="round"/>
      <text x="-20" y="24" text-anchor="middle" fill="#ccc" font-size="9">0</text>
      <text x="0" y="-25" text-anchor="middle" fill="#ccc" font-size="9">5</text>
      <text x="20" y="24" text-anchor="middle" fill="#ccc" font-size="9">10</text>
    </g>
    <text x="55" y="332" text-anchor="middle" fill="#fff" font-size="11">Pitch Follow</text>
    <g transform="translate(55,386)">
      <line x1="0" y1="-18" x2="0" y2="-23" stroke="#aaa" stroke-width="1.2" transform="rotate(-140)"/>
      <line x1="0" y1="-18" x2="0" y2="-21" stroke="#666" stroke-width="0.9" transform="rotate(-112)"/>
      <line x1="0" y1="-18" x2="0" y2="-21" stroke="#666" stroke-width="0.9" transform="rotate(-84)"/>
      <line x1="0" y1="-18" x2="0" y2="-21" stroke="#666" stroke-width="0.9" transform="rotate(-56)"/>
      <line x1="0" y1="-18" x2="0" y2="-21" stroke="#666" stroke-width="0.9" transform="rotate(-28)"/>
      <line x1="0" y1="-18" x2="0" y2="-23" stroke="#aaa" stroke-width="1.2" transform="rotate(0)"/>
      <line x1="0" y1="-18" x2="0" y2="-21" stroke="#666" stroke-width="0.9" transform="rotate(28)"/>
      <line x1="0" y1="-18" x2="0" y2="-21" stroke="#666" stroke-width="0.9" transform="rotate(56)"/>
      <line x1="0" y1="-18" x2="0" y2="-21" stroke="#666" stroke-width="0.9" transform="rotate(84)"/>
      <line x1="0" y1="-18" x2="0" y2="-21" stroke="#666" stroke-width="0.9" transform="rotate(112)"/>
      <line x1="0" y1="-18" x2="0" y2="-23" stroke="#aaa" stroke-width="1.2" transform="rotate(140)"/>
      <circle cx="0" cy="0" r="16" fill="#2a2a2a" stroke="#555" stroke-width="1.5"/>
      <line x1="0" y1="-4" x2="-6" y2="-10" stroke="#ddd" stroke-width="2" stroke-linecap="round"/>
      <text x="-20" y="24" text-anchor="middle" fill="#ccc" font-size="9">0</text>
      <text x="24" y="6" text-anchor="start" fill="#ccc" font-size="9">100%</text>
    </g>
    <line x1="140" y1="304" x2="140" y2="358" stroke="#ccc" stroke-width="1.5"/>
    <polygon points="140,300 135,312 145,312" fill="#ccc"/>
    <rect x="126" y="358" width="26" height="48" fill="#111" stroke="#777" stroke-width="1" rx="2"/>
    <rect x="128" y="360" width="22" height="17" fill="#d0d0d0" rx="1"/>
    <rect x="128" y="379" width="22" height="14" fill="#999" rx="1"/>
    <rect x="128" y="394" width="22" height="9" fill="#555" rx="1"/>
    <polyline points="158,368 162,368 165,362 168,368 173,368" fill="none" stroke="#ccc" stroke-width="1.2" stroke-linecap="round" stroke-linejoin="round"/>
    <polyline points="158,402 162,402 165,408 168,402 173,402" fill="none" stroke="#ccc" stroke-width="1.2" stroke-linecap="round" stroke-linejoin="round"/>
    <text x="261" y="332" text-anchor="middle" fill="#fff" font-size="11">Chorus</text>
    <rect x="248" y="363" width="26" height="48" fill="#111" stroke="#777" stroke-width="1" rx="2"/>
    <rect x="250" y="365" width="22" height="17" fill="#d0d0d0" rx="1"/>
    <rect x="250" y="384" width="22" height="14" fill="#999" rx="1"/>
    <rect x="250" y="399" width="22" height="9" fill="#555" rx="1"/>
    <text x="280" y="375" fill="#ccc" font-size="11" text-anchor="start">On</text>
    <text x="280" y="402" fill="#ccc" font-size="11" text-anchor="start">Off</text>
  </g>

  <!-- RIGHT PANEL -->
  <polygon points="820,52 1048,52 1024,116 796,116" fill="#cc2222"/>
  <text x="1048" y="42" text-anchor="end" fill="#ccc" font-size="16">Patch name</text>
  <text x="922" y="88" text-anchor="middle" fill="#fff" font-size="13" font-weight="bold">C5: Saw Wave Goodbye</text>
  <image href="assets/jp-logo.png" x="800" y="132" width="248" height="160" preserveAspectRatio="xMidYMid meet"/>

  <!-- Tape Memory box (Save / Load) -->
  <rect x="800" y="300" width="220" height="160" fill="none" stroke="#ccc" stroke-width="1.5" rx="2"/>
  <rect x="800" y="300" width="220" height="22" fill="#ffffff" rx="2"/>
  <text x="910" y="316" text-anchor="middle" fill="#1a1a1a" font-size="13" font-weight="bold">Tape Memory</text>
  <text x="843" y="354" text-anchor="middle" fill="#ccc" font-size="11">Save</text>
  <rect x="814" y="358" width="58" height="58" fill="#2a2a2a" stroke="#666" stroke-width="1" rx="2"/>
  <rect x="830" y="362" width="26" height="6" fill="#cc2222" rx="1"/>
  <rect x="830" y="396" width="26" height="14" fill="#555" rx="1"/>
  <text x="969" y="354" text-anchor="middle" fill="#ccc" font-size="11">Load</text>
  <rect x="940" y="358" width="58" height="58" fill="#2a2a2a" stroke="#666" stroke-width="1" rx="2"/>
  <rect x="956" y="362" width="26" height="6" fill="#44aa44" rx="1"/>
  <rect x="956" y="396" width="26" height="14" fill="#555" rx="1"/>

  <!-- BOTTOM ROW -->
  <line x1="381" y1="450" x2="381" y2="608" stroke="#ccc" stroke-width="1.5"/>
  <text x="185" y="478" text-anchor="middle" fill="#ccc" font-size="13" letter-spacing="1">LFO</text>
  <text x="560" y="478" text-anchor="middle" fill="#ccc" font-size="13" letter-spacing="1">Envelope</text>
  <text x="55" y="496" text-anchor="middle" fill="#fff" font-size="11">Waveform</text>
  <!-- LFO Waveform markers: arc at -60° / 0° / +60° (r=38 from knob centre 55,545) -->
  <!-- sine -->
  <g transform="translate(22,526)">
    <path d="M -5 0 Q -2.5 -5 0 0 Q 2.5 5 5 0" fill="none" stroke="#ccc" stroke-width="1.2" stroke-linecap="round" stroke-linejoin="round"/>
  </g>
  <circle cx="30" cy="533" r="1.5" fill="#ccc"/>
  <!-- square -->
  <g transform="translate(55,507)">
    <polyline points="-5,4 -5,-4 0,-4 0,4 5,4 5,-4" fill="none" stroke="#ccc" stroke-width="1.2" stroke-linecap="round" stroke-linejoin="round"/>
  </g>
  <circle cx="55" cy="515" r="1.5" fill="#ccc"/>
  <g transform="translate(88,526)">
    <circle cx="0" cy="0" r="1.5" fill="#ccc"/>
    <text x="5" y="4" text-anchor="start" fill="#ccc" font-size="11">Random</text>
  </g>
  <circle cx="55" cy="545" r="22" fill="#2a2a2a" stroke="#555" stroke-width="1.5"/>
  <line x1="55" y1="540" x2="47" y2="532" stroke="#ddd" stroke-width="2" stroke-linecap="round"/>
  <text x="165" y="496" text-anchor="middle" fill="#fff" font-size="11">Delay Time</text>
  <g transform="translate(165,545)">
    <line x1="-18.38" y1="18.38" x2="-22.63" y2="22.63" stroke="#aaa" stroke-width="1" stroke-linecap="round"/>
    <line x1="-24.73" y1="8.03" x2="-30.43" y2="9.89" stroke="#aaa" stroke-width="1" stroke-linecap="round"/>
    <line x1="-25.68" y1="-4.07" x2="-31.61" y2="-5.01" stroke="#aaa" stroke-width="1" stroke-linecap="round"/>
    <line x1="-21.03" y1="-15.28" x2="-25.89" y2="-18.81" stroke="#aaa" stroke-width="1" stroke-linecap="round"/>
    <line x1="-11.80" y1="-23.17" x2="-14.53" y2="-28.51" stroke="#aaa" stroke-width="1" stroke-linecap="round"/>
    <line x1="0.00" y1="-26.00" x2="0.00" y2="-32.00" stroke="#aaa" stroke-width="1" stroke-linecap="round"/>
    <line x1="11.80" y1="-23.17" x2="14.53" y2="-28.51" stroke="#aaa" stroke-width="1" stroke-linecap="round"/>
    <line x1="21.03" y1="-15.28" x2="25.89" y2="-18.81" stroke="#aaa" stroke-width="1" stroke-linecap="round"/>
    <line x1="25.68" y1="-4.07" x2="31.61" y2="-5.01" stroke="#aaa" stroke-width="1" stroke-linecap="round"/>
    <line x1="24.73" y1="8.03" x2="30.43" y2="9.89" stroke="#aaa" stroke-width="1" stroke-linecap="round"/>
    <line x1="18.38" y1="18.38" x2="22.63" y2="22.63" stroke="#aaa" stroke-width="1" stroke-linecap="round"/>
    <circle cx="0" cy="0" r="18" fill="#2a2a2a" stroke="#555" stroke-width="1.5"/>
    <line x1="0" y1="-5" x2="-7" y2="-13" stroke="#ddd" stroke-width="2" stroke-linecap="round"/>
    <text x="-20" y="26" text-anchor="middle" fill="#ccc" font-size="9">0</text>
    <text x="0" y="-26" text-anchor="middle" fill="#ccc" font-size="9">5</text>
    <text x="20" y="26" text-anchor="middle" fill="#ccc" font-size="9">10</text>
  </g>
  <text x="300" y="496" text-anchor="middle" fill="#fff" font-size="11">Rate</text>
  <g transform="translate(300,545)">
    <line x1="-18.38" y1="18.38" x2="-22.63" y2="22.63" stroke="#aaa" stroke-width="1" stroke-linecap="round"/>
    <line x1="-24.73" y1="8.03" x2="-30.43" y2="9.89" stroke="#aaa" stroke-width="1" stroke-linecap="round"/>
    <line x1="-25.68" y1="-4.07" x2="-31.61" y2="-5.01" stroke="#aaa" stroke-width="1" stroke-linecap="round"/>
    <line x1="-21.03" y1="-15.28" x2="-25.89" y2="-18.81" stroke="#aaa" stroke-width="1" stroke-linecap="round"/>
    <line x1="-11.80" y1="-23.17" x2="-14.53" y2="-28.51" stroke="#aaa" stroke-width="1" stroke-linecap="round"/>
    <line x1="0.00" y1="-26.00" x2="0.00" y2="-32.00" stroke="#aaa" stroke-width="1" stroke-linecap="round"/>
    <line x1="11.80" y1="-23.17" x2="14.53" y2="-28.51" stroke="#aaa" stroke-width="1" stroke-linecap="round"/>
    <line x1="21.03" y1="-15.28" x2="25.89" y2="-18.81" stroke="#aaa" stroke-width="1" stroke-linecap="round"/>
    <line x1="25.68" y1="-4.07" x2="31.61" y2="-5.01" stroke="#aaa" stroke-width="1" stroke-linecap="round"/>
    <line x1="24.73" y1="8.03" x2="30.43" y2="9.89" stroke="#aaa" stroke-width="1" stroke-linecap="round"/>
    <line x1="18.38" y1="18.38" x2="22.63" y2="22.63" stroke="#aaa" stroke-width="1" stroke-linecap="round"/>
    <circle cx="0" cy="0" r="18" fill="#2a2a2a" stroke="#555" stroke-width="1.5"/>
    <line x1="0" y1="-5" x2="-7" y2="-13" stroke="#ddd" stroke-width="2" stroke-linecap="round"/>
    <text x="-20" y="26" text-anchor="middle" fill="#ccc" font-size="9">0</text>
    <text x="0" y="-26" text-anchor="middle" fill="#ccc" font-size="9">5</text>
    <text x="20" y="26" text-anchor="middle" fill="#ccc" font-size="9">10</text>
  </g>
  <text x="420" y="496" text-anchor="middle" fill="#fff" font-size="11">Attack</text>
  <g transform="translate(420,545)">
    <line x1="-18.38" y1="18.38" x2="-22.63" y2="22.63" stroke="#aaa" stroke-width="1" stroke-linecap="round"/>
    <line x1="-24.73" y1="8.03" x2="-30.43" y2="9.89" stroke="#aaa" stroke-width="1" stroke-linecap="round"/>
    <line x1="-25.68" y1="-4.07" x2="-31.61" y2="-5.01" stroke="#aaa" stroke-width="1" stroke-linecap="round"/>
    <line x1="-21.03" y1="-15.28" x2="-25.89" y2="-18.81" stroke="#aaa" stroke-width="1" stroke-linecap="round"/>
    <line x1="-11.80" y1="-23.17" x2="-14.53" y2="-28.51" stroke="#aaa" stroke-width="1" stroke-linecap="round"/>
    <line x1="0.00" y1="-26.00" x2="0.00" y2="-32.00" stroke="#aaa" stroke-width="1" stroke-linecap="round"/>
    <line x1="11.80" y1="-23.17" x2="14.53" y2="-28.51" stroke="#aaa" stroke-width="1" stroke-linecap="round"/>
    <line x1="21.03" y1="-15.28" x2="25.89" y2="-18.81" stroke="#aaa" stroke-width="1" stroke-linecap="round"/>
    <line x1="25.68" y1="-4.07" x2="31.61" y2="-5.01" stroke="#aaa" stroke-width="1" stroke-linecap="round"/>
    <line x1="24.73" y1="8.03" x2="30.43" y2="9.89" stroke="#aaa" stroke-width="1" stroke-linecap="round"/>
    <line x1="18.38" y1="18.38" x2="22.63" y2="22.63" stroke="#aaa" stroke-width="1" stroke-linecap="round"/>
    <circle cx="0" cy="0" r="18" fill="#2a2a2a" stroke="#555" stroke-width="1.5"/>
    <line x1="0" y1="-5" x2="-7" y2="-13" stroke="#ddd" stroke-width="2" stroke-linecap="round"/>
    <text x="-20" y="26" text-anchor="middle" fill="#ccc" font-size="9">0</text>
    <text x="0" y="-26" text-anchor="middle" fill="#ccc" font-size="9">5</text>
    <text x="20" y="26" text-anchor="middle" fill="#ccc" font-size="9">10</text>
  </g>
  <text x="490" y="496" text-anchor="middle" fill="#fff" font-size="11">Decay</text>
  <g transform="translate(490,545)">
    <line x1="-18.38" y1="18.38" x2="-22.63" y2="22.63" stroke="#aaa" stroke-width="1" stroke-linecap="round"/>
    <line x1="-24.73" y1="8.03" x2="-30.43" y2="9.89" stroke="#aaa" stroke-width="1" stroke-linecap="round"/>
    <line x1="-25.68" y1="-4.07" x2="-31.61" y2="-5.01" stroke="#aaa" stroke-width="1" stroke-linecap="round"/>
    <line x1="-21.03" y1="-15.28" x2="-25.89" y2="-18.81" stroke="#aaa" stroke-width="1" stroke-linecap="round"/>
    <line x1="-11.80" y1="-23.17" x2="-14.53" y2="-28.51" stroke="#aaa" stroke-width="1" stroke-linecap="round"/>
    <line x1="0.00" y1="-26.00" x2="0.00" y2="-32.00" stroke="#aaa" stroke-width="1" stroke-linecap="round"/>
    <line x1="11.80" y1="-23.17" x2="14.53" y2="-28.51" stroke="#aaa" stroke-width="1" stroke-linecap="round"/>
    <line x1="21.03" y1="-15.28" x2="25.89" y2="-18.81" stroke="#aaa" stroke-width="1" stroke-linecap="round"/>
    <line x1="25.68" y1="-4.07" x2="31.61" y2="-5.01" stroke="#aaa" stroke-width="1" stroke-linecap="round"/>
    <line x1="24.73" y1="8.03" x2="30.43" y2="9.89" stroke="#aaa" stroke-width="1" stroke-linecap="round"/>
    <line x1="18.38" y1="18.38" x2="22.63" y2="22.63" stroke="#aaa" stroke-width="1" stroke-linecap="round"/>
    <circle cx="0" cy="0" r="18" fill="#2a2a2a" stroke="#555" stroke-width="1.5"/>
    <line x1="0" y1="-5" x2="-7" y2="-13" stroke="#ddd" stroke-width="2" stroke-linecap="round"/>
    <text x="-20" y="26" text-anchor="middle" fill="#ccc" font-size="9">0</text>
    <text x="0" y="-26" text-anchor="middle" fill="#ccc" font-size="9">5</text>
    <text x="20" y="26" text-anchor="middle" fill="#ccc" font-size="9">10</text>
  </g>
  <text x="560" y="496" text-anchor="middle" fill="#fff" font-size="11">Sustain</text>
  <g transform="translate(560,545)">
    <line x1="-18.38" y1="18.38" x2="-22.63" y2="22.63" stroke="#aaa" stroke-width="1" stroke-linecap="round"/>
    <line x1="-24.73" y1="8.03" x2="-30.43" y2="9.89" stroke="#aaa" stroke-width="1" stroke-linecap="round"/>
    <line x1="-25.68" y1="-4.07" x2="-31.61" y2="-5.01" stroke="#aaa" stroke-width="1" stroke-linecap="round"/>
    <line x1="-21.03" y1="-15.28" x2="-25.89" y2="-18.81" stroke="#aaa" stroke-width="1" stroke-linecap="round"/>
    <line x1="-11.80" y1="-23.17" x2="-14.53" y2="-28.51" stroke="#aaa" stroke-width="1" stroke-linecap="round"/>
    <line x1="0.00" y1="-26.00" x2="0.00" y2="-32.00" stroke="#aaa" stroke-width="1" stroke-linecap="round"/>
    <line x1="11.80" y1="-23.17" x2="14.53" y2="-28.51" stroke="#aaa" stroke-width="1" stroke-linecap="round"/>
    <line x1="21.03" y1="-15.28" x2="25.89" y2="-18.81" stroke="#aaa" stroke-width="1" stroke-linecap="round"/>
    <line x1="25.68" y1="-4.07" x2="31.61" y2="-5.01" stroke="#aaa" stroke-width="1" stroke-linecap="round"/>
    <line x1="24.73" y1="8.03" x2="30.43" y2="9.89" stroke="#aaa" stroke-width="1" stroke-linecap="round"/>
    <line x1="18.38" y1="18.38" x2="22.63" y2="22.63" stroke="#aaa" stroke-width="1" stroke-linecap="round"/>
    <circle cx="0" cy="0" r="18" fill="#2a2a2a" stroke="#555" stroke-width="1.5"/>
    <line x1="0" y1="-5" x2="-7" y2="-13" stroke="#ddd" stroke-width="2" stroke-linecap="round"/>
    <text x="-20" y="26" text-anchor="middle" fill="#ccc" font-size="9">0</text>
    <text x="0" y="-26" text-anchor="middle" fill="#ccc" font-size="9">5</text>
    <text x="20" y="26" text-anchor="middle" fill="#ccc" font-size="9">10</text>
  </g>
  <text x="630" y="496" text-anchor="middle" fill="#fff" font-size="11">Release</text>
  <g transform="translate(630,545)">
    <line x1="-18.38" y1="18.38" x2="-22.63" y2="22.63" stroke="#aaa" stroke-width="1" stroke-linecap="round"/>
    <line x1="-24.73" y1="8.03" x2="-30.43" y2="9.89" stroke="#aaa" stroke-width="1" stroke-linecap="round"/>
    <line x1="-25.68" y1="-4.07" x2="-31.61" y2="-5.01" stroke="#aaa" stroke-width="1" stroke-linecap="round"/>
    <line x1="-21.03" y1="-15.28" x2="-25.89" y2="-18.81" stroke="#aaa" stroke-width="1" stroke-linecap="round"/>
    <line x1="-11.80" y1="-23.17" x2="-14.53" y2="-28.51" stroke="#aaa" stroke-width="1" stroke-linecap="round"/>
    <line x1="0.00" y1="-26.00" x2="0.00" y2="-32.00" stroke="#aaa" stroke-width="1" stroke-linecap="round"/>
    <line x1="11.80" y1="-23.17" x2="14.53" y2="-28.51" stroke="#aaa" stroke-width="1" stroke-linecap="round"/>
    <line x1="21.03" y1="-15.28" x2="25.89" y2="-18.81" stroke="#aaa" stroke-width="1" stroke-linecap="round"/>
    <line x1="25.68" y1="-4.07" x2="31.61" y2="-5.01" stroke="#aaa" stroke-width="1" stroke-linecap="round"/>
    <line x1="24.73" y1="8.03" x2="30.43" y2="9.89" stroke="#aaa" stroke-width="1" stroke-linecap="round"/>
    <line x1="18.38" y1="18.38" x2="22.63" y2="22.63" stroke="#aaa" stroke-width="1" stroke-linecap="round"/>
    <circle cx="0" cy="0" r="18" fill="#2a2a2a" stroke="#555" stroke-width="1.5"/>
    <line x1="0" y1="-5" x2="-7" y2="-13" stroke="#ddd" stroke-width="2" stroke-linecap="round"/>
    <text x="-20" y="26" text-anchor="middle" fill="#ccc" font-size="9">0</text>
    <text x="0" y="-26" text-anchor="middle" fill="#ccc" font-size="9">5</text>
    <text x="20" y="26" text-anchor="middle" fill="#ccc" font-size="9">10</text>
  </g>
  <text x="719" y="492" text-anchor="middle" fill="#fff" font-size="11">Manual</text>
  <rect x="690" y="516" width="58" height="58" fill="#2a2a2a" stroke="#666" stroke-width="1" rx="2"/>
  <rect x="704" y="520" width="26" height="6" fill="#cc2222" rx="1"/>
  <rect x="704" y="556" width="26" height="14" fill="#555" rx="1"/>
  <text x="797" y="492" text-anchor="middle" fill="#fff" font-size="11">Write</text>
  <rect x="768" y="516" width="58" height="58" fill="#2a2a2a" stroke="#666" stroke-width="1" rx="2"/>
  <rect x="782" y="520" width="26" height="6" fill="#44aa44" rx="1"/>
  <rect x="782" y="556" width="26" height="14" fill="#555" rx="1"/>

  <!-- RED BOTTOM STRIP -->
  <rect x="0" y="612" width="1050" height="8" fill="#cc2222"/>

</svg>
