<svg viewBox="0 0 1050 620" width="1050" preserveAspectRatio="xMidYMin meet" xmlns="http://www.w3.org/2000/svg" style="font-family:Helvetica,'Helvetica Neue',sans-serif;">

  <!-- RED HEADER -->
  <rect x="0" y="0" width="1050" height="24" fill="#cc2222"/>
  <text x="70" y="19" text-anchor="middle" fill="#fff" font-size="21">DCO-1</text>
  <text x="285" y="19" text-anchor="middle" fill="#fff" font-size="21">DCO-2</text>
  <text x="503" y="19" text-anchor="middle" fill="#fff" font-size="21">VCF</text>
  <text x="661" y="19" text-anchor="middle" fill="#fff" font-size="21">VCA</text>

  <!-- Section dividers -->
  <line x1="400" y1="24" x2="400" y2="424" stroke="#ccc" stroke-width="1.5"/>
  <line x1="605" y1="24" x2="605" y2="424" stroke="#ccc" stroke-width="1.5"/>

  <!-- DCO-1 + DCO-2 -->
  <g transform="translate(0,24)">
    <text x="70" y="18" text-anchor="middle" fill="#fff" font-size="14">Range</text>
    <text x="37" y="65" text-anchor="middle" fill="#ccc" font-size="13">16'</text>
    <circle cx="45" cy="72" r="1.8" fill="#ccc"/>
    <text x="70" y="46" text-anchor="middle" fill="#ccc" font-size="13">8'</text>
    <circle cx="70" cy="54" r="1.8" fill="#ccc"/>
    <text x="103" y="65" text-anchor="middle" fill="#ccc" font-size="13">4'</text>
    <circle cx="95" cy="72" r="1.8" fill="#ccc"/>
    <g transform="translate(70,84)"><g class="knob">
      <circle cx="0" cy="0" r="22" fill="#c8c8c8" stroke="#555" stroke-width="1.5"/>
      <path d="M 11.50 -19.92 A 23 23 0 0 1 19.92 -11.50 L 17.32 -10.00 A 20 20 0 0 0 10.00 -17.32 Z" fill="#1a1a1a"/>
      <path d="M 19.92 11.50 A 23 23 0 0 1 11.50 19.92 L 10.00 17.32 A 20 20 0 0 0 17.32 10.00 Z" fill="#1a1a1a"/>
      <path d="M -11.50 19.92 A 23 23 0 0 1 -19.92 11.50 L -17.32 10.00 A 20 20 0 0 0 -10.00 17.32 Z" fill="#1a1a1a"/>
      <path d="M -19.92 -11.50 A 23 23 0 0 1 -11.50 -19.92 L -10.00 -17.32 A 20 20 0 0 0 -17.32 -10.00 Z" fill="#1a1a1a"/>
      <line x1="0" y1="-19" x2="0" y2="-24" stroke="#1a1a1a" stroke-width="3.5" stroke-linecap="round"/>
      <line x1="0" y1="-8" x2="0" y2="-19" stroke="#888" stroke-width="3.5" stroke-linecap="round"/>
    </g></g>
    <text x="70" y="142" text-anchor="middle" fill="#fff" font-size="14">Waveform</text>
    <!-- DCO-1 Waveform markers: arc at -60° / 0° / +60° (r=38 from knob centre 70,196) -->
    <!-- saw (lightning Z) -->
    <g transform="translate(37,177)"><polyline points="-5,-5 3,-5 -3,5 5,5" fill="none" stroke="#ccc" stroke-width="1.2" stroke-linecap="round" stroke-linejoin="round"/></g>
    <circle cx="45" cy="184" r="1.5" fill="#ccc"/>
    <!-- pulse (up, short right, down, long right, up) -->
    <g transform="translate(70,158)"><polyline points="-5,4 -5,-4 -2,-4 -2,4 3,4 3,-4" fill="none" stroke="#ccc" stroke-width="1.2" stroke-linecap="round" stroke-linejoin="round"/></g>
    <circle cx="70" cy="166" r="1.5" fill="#ccc"/>
    <!-- square (up, right, down, right, up — equal halves) -->
    <g transform="translate(103,177)"><polyline points="-5,4 -5,-4 0,-4 0,4 5,4 5,-4" fill="none" stroke="#ccc" stroke-width="1.2" stroke-linecap="round" stroke-linejoin="round"/></g>
    <circle cx="95" cy="184" r="1.5" fill="#ccc"/>
    <g transform="translate(70,196)"><g class="knob">
      <circle cx="0" cy="0" r="22" fill="#c8c8c8" stroke="#555" stroke-width="1.5"/>
      <path d="M 11.50 -19.92 A 23 23 0 0 1 19.92 -11.50 L 17.32 -10.00 A 20 20 0 0 0 10.00 -17.32 Z" fill="#1a1a1a"/>
      <path d="M 19.92 11.50 A 23 23 0 0 1 11.50 19.92 L 10.00 17.32 A 20 20 0 0 0 17.32 10.00 Z" fill="#1a1a1a"/>
      <path d="M -11.50 19.92 A 23 23 0 0 1 -19.92 11.50 L -17.32 10.00 A 20 20 0 0 0 -10.00 17.32 Z" fill="#1a1a1a"/>
      <path d="M -19.92 -11.50 A 23 23 0 0 1 -11.50 -19.92 L -10.00 -17.32 A 20 20 0 0 0 -17.32 -10.00 Z" fill="#1a1a1a"/>
      <line x1="0" y1="-19" x2="0" y2="-24" stroke="#1a1a1a" stroke-width="3.5" stroke-linecap="round"/>
      <line x1="0" y1="-8" x2="0" y2="-19" stroke="#888" stroke-width="3.5" stroke-linecap="round"/>
    </g></g>
    <text x="65" y="244" text-anchor="middle" fill="#fff" font-size="14">Freq Mod</text>
    <text x="39" y="265" text-anchor="middle" fill="#ccc" font-size="11">LFO</text>
    <text x="91" y="265" text-anchor="middle" fill="#ccc" font-size="11">ENV</text>
    <text x="65" y="283" text-anchor="middle" fill="#ccc" font-size="11">On</text>
    <text x="65" y="315" text-anchor="middle" fill="#ccc" font-size="11">Off</text>
    <rect x="26" y="271" width="26" height="48" fill="#111" stroke="#777" stroke-width="1" rx="2"/>
    <rect x="28" y="273" width="22" height="17" fill="#d0d0d0" rx="1"/>
    <rect x="28" y="292" width="22" height="14" fill="#999" rx="1"/>
    <rect x="28" y="307" width="22" height="9" fill="#555" rx="1"/>
    <rect x="78" y="271" width="26" height="48" fill="#111" stroke="#777" stroke-width="1" rx="2"/>
    <rect x="80" y="273" width="22" height="17" fill="#d0d0d0" rx="1"/>
    <rect x="80" y="292" width="22" height="14" fill="#999" rx="1"/>
    <rect x="80" y="307" width="22" height="9" fill="#555" rx="1"/>
    <line x1="140" y1="0" x2="140" y2="278" stroke="#ccc" stroke-width="1.5"/>
    <text x="218" y="18" text-anchor="middle" fill="#fff" font-size="14">Range</text>
    <text x="185" y="65" text-anchor="middle" fill="#ccc" font-size="13">16'</text>
    <circle cx="193" cy="72" r="1.8" fill="#ccc"/>
    <text x="218" y="46" text-anchor="middle" fill="#ccc" font-size="13">8'</text>
    <circle cx="218" cy="54" r="1.8" fill="#ccc"/>
    <text x="251" y="65" text-anchor="middle" fill="#ccc" font-size="13">4'</text>
    <circle cx="243" cy="72" r="1.8" fill="#ccc"/>
    <g transform="translate(218,84)"><g class="knob">
      <circle cx="0" cy="0" r="22" fill="#c8c8c8" stroke="#555" stroke-width="1.5"/>
      <path d="M 11.50 -19.92 A 23 23 0 0 1 19.92 -11.50 L 17.32 -10.00 A 20 20 0 0 0 10.00 -17.32 Z" fill="#1a1a1a"/>
      <path d="M 19.92 11.50 A 23 23 0 0 1 11.50 19.92 L 10.00 17.32 A 20 20 0 0 0 17.32 10.00 Z" fill="#1a1a1a"/>
      <path d="M -11.50 19.92 A 23 23 0 0 1 -19.92 11.50 L -17.32 10.00 A 20 20 0 0 0 -10.00 17.32 Z" fill="#1a1a1a"/>
      <path d="M -19.92 -11.50 A 23 23 0 0 1 -11.50 -19.92 L -10.00 -17.32 A 20 20 0 0 0 -17.32 -10.00 Z" fill="#1a1a1a"/>
      <line x1="0" y1="-19" x2="0" y2="-24" stroke="#1a1a1a" stroke-width="3.5" stroke-linecap="round"/>
      <line x1="0" y1="-8" x2="0" y2="-19" stroke="#888" stroke-width="3.5" stroke-linecap="round"/>
    </g></g>
    <text x="338" y="18" text-anchor="middle" fill="#fff" font-size="14">Tune</text>
    <line x1="338" y1="59" x2="338" y2="64" stroke="#ccc" stroke-width="1.5"/>
    <path d="M 328,101.32 A 20,20 0 1,1 348,101.32" fill="none" stroke="#ccc" stroke-width="1.5" stroke-linecap="round"/>
    <text x="318" y="108" text-anchor="middle" fill="#ccc" font-size="11">&#9837;</text>
    <text x="358" y="108" text-anchor="middle" fill="#ccc" font-size="11">&#9839;</text>
    <g transform="translate(338,84)"><g class="knob">
      <circle cx="0" cy="0" r="18" fill="#c8c8c8" stroke="#555" stroke-width="1.5"/>
      <line x1="0" y1="-13" x2="0" y2="-18" stroke="#1a1a1a" stroke-width="3.5" stroke-linecap="round"/>
      <line x1="0" y1="-4" x2="0" y2="-13" stroke="#888" stroke-width="3.5" stroke-linecap="round"/>
    </g></g>
    <text x="218" y="142" text-anchor="middle" fill="#fff" font-size="14">Waveform</text>
    <!-- DCO-2 Waveform markers: arc at -90° / -30° / +30° / +90° (r=38 from knob centre 218,196) -->
    <!-- saw at -90° -->
    <g transform="translate(180,196)"><polyline points="-5,-5 3,-5 -3,5 5,5" fill="none" stroke="#ccc" stroke-width="1.2" stroke-linecap="round" stroke-linejoin="round"/></g>
    <circle cx="188" cy="196" r="1.5" fill="#ccc"/>
    <!-- pulse at -30° -->
    <g transform="translate(199,163)"><polyline points="-5,4 -5,-4 -2,-4 -2,4 3,4 3,-4" fill="none" stroke="#ccc" stroke-width="1.2" stroke-linecap="round" stroke-linejoin="round"/></g>
    <circle cx="203" cy="171" r="1.5" fill="#ccc"/>
    <!-- square at +30° -->
    <g transform="translate(237,163)"><polyline points="-5,4 -5,-4 0,-4 0,4 5,4 5,-4" fill="none" stroke="#ccc" stroke-width="1.2" stroke-linecap="round" stroke-linejoin="round"/></g>
    <circle cx="233" cy="171" r="1.5" fill="#ccc"/>
    <circle cx="248" cy="196" r="1.5" fill="#ccc"/>
    <text x="253" y="200" text-anchor="start" fill="#ccc" font-size="11">Noise</text>
    <g transform="translate(218,196)"><g class="knob">
      <circle cx="0" cy="0" r="22" fill="#c8c8c8" stroke="#555" stroke-width="1.5"/>
      <path d="M 11.50 -19.92 A 23 23 0 0 1 19.92 -11.50 L 17.32 -10.00 A 20 20 0 0 0 10.00 -17.32 Z" fill="#1a1a1a"/>
      <path d="M 19.92 11.50 A 23 23 0 0 1 11.50 19.92 L 10.00 17.32 A 20 20 0 0 0 17.32 10.00 Z" fill="#1a1a1a"/>
      <path d="M -11.50 19.92 A 23 23 0 0 1 -19.92 11.50 L -17.32 10.00 A 20 20 0 0 0 -10.00 17.32 Z" fill="#1a1a1a"/>
      <path d="M -19.92 -11.50 A 23 23 0 0 1 -11.50 -19.92 L -10.00 -17.32 A 20 20 0 0 0 -17.32 -10.00 Z" fill="#1a1a1a"/>
      <line x1="0" y1="-19" x2="0" y2="-24" stroke="#1a1a1a" stroke-width="3.5" stroke-linecap="round"/>
      <line x1="0" y1="-8" x2="0" y2="-19" stroke="#888" stroke-width="3.5" stroke-linecap="round"/>
    </g></g>
    <text x="338" y="142" text-anchor="middle" fill="#fff" font-size="14">Fine Tune</text>
    <line x1="338" y1="171" x2="338" y2="176" stroke="#ccc" stroke-width="1.5"/>
    <path d="M 328,213.32 A 20,20 0 1,1 348,213.32" fill="none" stroke="#ccc" stroke-width="1.5" stroke-linecap="round"/>
    <text x="318" y="220" text-anchor="middle" fill="#ccc" font-size="11">&#9837;</text>
    <text x="358" y="220" text-anchor="middle" fill="#ccc" font-size="11">&#9839;</text>
    <g transform="translate(338,196)"><g class="knob">
      <circle cx="0" cy="0" r="18" fill="#c8c8c8" stroke="#555" stroke-width="1.5"/>
      <line x1="0" y1="-13" x2="0" y2="-18" stroke="#1a1a1a" stroke-width="3.5" stroke-linecap="round"/>
      <line x1="0" y1="-4" x2="0" y2="-13" stroke="#888" stroke-width="3.5" stroke-linecap="round"/>
    </g></g>
    <text x="218" y="244" text-anchor="middle" fill="#fff" font-size="14">Cross Mod</text>
    <text x="218" y="256" text-anchor="middle" fill="#ccc" font-size="11">Sync</text>
    <circle cx="218" cy="261" r="1.8" fill="#ccc"/>
    <text x="183" y="272" text-anchor="end" fill="#ccc" font-size="11">Off</text>
    <circle cx="187" cy="268" r="1.8" fill="#ccc"/>
    <circle cx="249" cy="268" r="1.8" fill="#ccc"/>
    <text x="253" y="272" text-anchor="start" fill="#ccc" font-size="11">Metal</text>
    <g transform="translate(218,295)"><g class="knob">
      <circle cx="0" cy="0" r="22" fill="#c8c8c8" stroke="#555" stroke-width="1.5"/>
      <path d="M 11.50 -19.92 A 23 23 0 0 1 19.92 -11.50 L 17.32 -10.00 A 20 20 0 0 0 10.00 -17.32 Z" fill="#1a1a1a"/>
      <path d="M 19.92 11.50 A 23 23 0 0 1 11.50 19.92 L 10.00 17.32 A 20 20 0 0 0 17.32 10.00 Z" fill="#1a1a1a"/>
      <path d="M -11.50 19.92 A 23 23 0 0 1 -19.92 11.50 L -17.32 10.00 A 20 20 0 0 0 -10.00 17.32 Z" fill="#1a1a1a"/>
      <path d="M -19.92 -11.50 A 23 23 0 0 1 -11.50 -19.92 L -10.00 -17.32 A 20 20 0 0 0 -17.32 -10.00 Z" fill="#1a1a1a"/>
      <line x1="0" y1="-19" x2="0" y2="-24" stroke="#1a1a1a" stroke-width="3.5" stroke-linecap="round"/>
      <line x1="0" y1="-8" x2="0" y2="-19" stroke="#888" stroke-width="3.5" stroke-linecap="round"/>
    </g></g>
    <text x="338" y="244" text-anchor="middle" fill="#fff" font-size="14">Freq Mod</text>
    <text x="312" y="265" text-anchor="middle" fill="#ccc" font-size="11">LFO</text>
    <text x="364" y="265" text-anchor="middle" fill="#ccc" font-size="11">ENV</text>
    <text x="338" y="283" text-anchor="middle" fill="#ccc" font-size="11">On</text>
    <text x="338" y="315" text-anchor="middle" fill="#ccc" font-size="11">Off</text>
    <rect x="299" y="271" width="26" height="48" fill="#111" stroke="#777" stroke-width="1" rx="2"/>
    <rect x="301" y="273" width="22" height="17" fill="#d0d0d0" rx="1"/>
    <rect x="301" y="292" width="22" height="14" fill="#999" rx="1"/>
    <rect x="301" y="307" width="22" height="9" fill="#555" rx="1"/>
    <rect x="351" y="271" width="26" height="48" fill="#111" stroke="#777" stroke-width="1" rx="2"/>
    <rect x="353" y="273" width="22" height="17" fill="#d0d0d0" rx="1"/>
    <rect x="353" y="292" width="22" height="14" fill="#999" rx="1"/>
    <rect x="353" y="307" width="22" height="9" fill="#555" rx="1"/>
    <line x1="39" y1="326" x2="364" y2="326" stroke="#ccc" stroke-width="1.5"/>
    <line x1="39" y1="319" x2="39" y2="326" stroke="#ccc" stroke-width="1.5"/>
    <line x1="91" y1="319" x2="91" y2="326" stroke="#ccc" stroke-width="1.5"/>
    <line x1="312" y1="319" x2="312" y2="326" stroke="#ccc" stroke-width="1.5"/>
    <line x1="364" y1="319" x2="364" y2="326" stroke="#ccc" stroke-width="1.5"/>
    <line x1="65" y1="326" x2="65" y2="338" stroke="#ccc" stroke-width="1.5"/>
    <text x="65" y="352" text-anchor="middle" fill="#ccc" font-size="14">LFO</text>
    <line x1="218" y1="326" x2="218" y2="338" stroke="#ccc" stroke-width="1.5"/>
    <text x="218" y="352" text-anchor="middle" fill="#ccc" font-size="14">ENV</text>
    <g transform="translate(65,390)">
    <line x1="-18.38" y1="18.38" x2="-22.63" y2="22.63" stroke="#aaa" stroke-width="1" stroke-linecap="round"/>
    <line x1="-24.73" y1="8.03" x2="-30.43" y2="9.89" stroke="#aaa" stroke-width="1" stroke-linecap="round"/>
    <line x1="-25.68" y1="-4.07" x2="-31.61" y2="-5.01" stroke="#aaa" stroke-width="1" stroke-linecap="round"/>
    <line x1="-21.03" y1="-15.28" x2="-25.89" y2="-18.81" stroke="#aaa" stroke-width="1" stroke-linecap="round"/>
    <line x1="-11.80" y1="-23.17" x2="-14.53" y2="-28.51" stroke="#aaa" stroke-width="1" stroke-linecap="round"/>
    <line x1="0.00" y1="-26.00" x2="0.00" y2="-32.00" stroke="#aaa" stroke-width="1" stroke-linecap="round"/>
    <line x1="11.80" y1="-23.17" x2="14.53" y2="-28.51" stroke="#aaa" stroke-width="1" stroke-linecap="round"/>
    <line x1="21.03" y1="-15.28" x2="25.89" y2="-18.81" stroke="#aaa" stroke-width="1" stroke-linecap="round"/>
    <line x1="25.68" y1="-4.07" x2="31.61" y2="-5.01" stroke="#aaa" stroke-width="1" stroke-linecap="round"/>
    <line x1="24.73" y1="8.03" x2="30.43" y2="9.89" stroke="#aaa" stroke-width="1" stroke-linecap="round"/>
    <line x1="18.38" y1="18.38" x2="22.63" y2="22.63" stroke="#aaa" stroke-width="1" stroke-linecap="round"/>
      <g class="knob">
      <circle cx="0" cy="0" r="18" fill="#c8c8c8" stroke="#555" stroke-width="1.5"/>
      <line x1="0" y1="-13" x2="0" y2="-18" stroke="#1a1a1a" stroke-width="3.5" stroke-linecap="round"/>
      <line x1="0" y1="-4" x2="0" y2="-13" stroke="#888" stroke-width="3.5" stroke-linecap="round"/>
    </g>
      <text x="-20" y="26" text-anchor="middle" fill="#ccc" font-size="10">0</text>
      <text x="0" y="-26" text-anchor="middle" fill="#ccc" font-size="10">5</text>
      <text x="20" y="26" text-anchor="middle" fill="#ccc" font-size="10">10</text>
    </g>
    <g transform="translate(218,390)">
    <line x1="-18.38" y1="18.38" x2="-22.63" y2="22.63" stroke="#aaa" stroke-width="1" stroke-linecap="round"/>
    <line x1="-24.73" y1="8.03" x2="-30.43" y2="9.89" stroke="#aaa" stroke-width="1" stroke-linecap="round"/>
    <line x1="-25.68" y1="-4.07" x2="-31.61" y2="-5.01" stroke="#aaa" stroke-width="1" stroke-linecap="round"/>
    <line x1="-21.03" y1="-15.28" x2="-25.89" y2="-18.81" stroke="#aaa" stroke-width="1" stroke-linecap="round"/>
    <line x1="-11.80" y1="-23.17" x2="-14.53" y2="-28.51" stroke="#aaa" stroke-width="1" stroke-linecap="round"/>
    <line x1="0.00" y1="-26.00" x2="0.00" y2="-32.00" stroke="#aaa" stroke-width="1" stroke-linecap="round"/>
    <line x1="11.80" y1="-23.17" x2="14.53" y2="-28.51" stroke="#aaa" stroke-width="1" stroke-linecap="round"/>
    <line x1="21.03" y1="-15.28" x2="25.89" y2="-18.81" stroke="#aaa" stroke-width="1" stroke-linecap="round"/>
    <line x1="25.68" y1="-4.07" x2="31.61" y2="-5.01" stroke="#aaa" stroke-width="1" stroke-linecap="round"/>
    <line x1="24.73" y1="8.03" x2="30.43" y2="9.89" stroke="#aaa" stroke-width="1" stroke-linecap="round"/>
    <line x1="18.38" y1="18.38" x2="22.63" y2="22.63" stroke="#aaa" stroke-width="1" stroke-linecap="round"/>
      <g class="knob">
      <circle cx="0" cy="0" r="18" fill="#c8c8c8" stroke="#555" stroke-width="1.5"/>
      <line x1="0" y1="-13" x2="0" y2="-18" stroke="#1a1a1a" stroke-width="3.5" stroke-linecap="round"/>
      <line x1="0" y1="-4" x2="0" y2="-13" stroke="#888" stroke-width="3.5" stroke-linecap="round"/>
    </g>
      <text x="-20" y="26" text-anchor="middle" fill="#ccc" font-size="10">0</text>
      <text x="0" y="-26" text-anchor="middle" fill="#ccc" font-size="10">5</text>
      <text x="20" y="26" text-anchor="middle" fill="#ccc" font-size="10">10</text>
    </g>
    <line x1="324" y1="390" x2="255" y2="390" stroke="#ccc" stroke-width="1.5"/>
    <polygon points="253,390 263,385 263,395" fill="#ccc"/>
    <rect x="325" y="370" width="26" height="48" fill="#111" stroke="#777" stroke-width="1" rx="2"/>
    <rect x="327" y="372" width="22" height="17" fill="#d0d0d0" rx="1"/>
    <rect x="327" y="391" width="22" height="14" fill="#999" rx="1"/>
    <rect x="327" y="406" width="22" height="9" fill="#555" rx="1"/>
    <polyline points="355,378 359,378 362,372 365,378 370,378" fill="none" stroke="#ccc" stroke-width="1.1" stroke-linecap="round" stroke-linejoin="round"/>
    <polyline points="355,400 359,400 362,406 365,400 370,400" fill="none" stroke="#ccc" stroke-width="1.1" stroke-linecap="round" stroke-linejoin="round"/>
  </g>

  <!-- VCF + VCA -->
  <g transform="translate(400,24)">
    <text x="55" y="18" text-anchor="middle" fill="#fff" font-size="14">Source Mix</text>
    <g transform="translate(55,84)">
      <line x1="0" y1="-18" x2="0" y2="-23" stroke="#aaa" stroke-width="1.2" transform="rotate(-140)"/>
      <line x1="0" y1="-18" x2="0" y2="-21" stroke="#666" stroke-width="0.9" transform="rotate(-112)"/>
      <line x1="0" y1="-18" x2="0" y2="-21" stroke="#666" stroke-width="0.9" transform="rotate(-84)"/>
      <line x1="0" y1="-18" x2="0" y2="-21" stroke="#666" stroke-width="0.9" transform="rotate(-56)"/>
      <line x1="0" y1="-18" x2="0" y2="-21" stroke="#666" stroke-width="0.9" transform="rotate(-28)"/>
      <line x1="0" y1="-18" x2="0" y2="-23" stroke="#aaa" stroke-width="1.2" transform="rotate(0)"/>
      <line x1="0" y1="-18" x2="0" y2="-21" stroke="#666" stroke-width="0.9" transform="rotate(28)"/>
      <line x1="0" y1="-18" x2="0" y2="-21" stroke="#666" stroke-width="0.9" transform="rotate(56)"/>
      <line x1="0" y1="-18" x2="0" y2="-21" stroke="#666" stroke-width="0.9" transform="rotate(84)"/>
      <line x1="0" y1="-18" x2="0" y2="-21" stroke="#666" stroke-width="0.9" transform="rotate(112)"/>
      <line x1="0" y1="-18" x2="0" y2="-23" stroke="#aaa" stroke-width="1.2" transform="rotate(140)"/>
      <g class="knob">
      <circle cx="0" cy="0" r="18" fill="#c8c8c8" stroke="#555" stroke-width="1.5"/>
      <line x1="0" y1="-13" x2="0" y2="-18" stroke="#1a1a1a" stroke-width="3.5" stroke-linecap="round"/>
      <line x1="0" y1="-4" x2="0" y2="-13" stroke="#888" stroke-width="3.5" stroke-linecap="round"/>
    </g>
      <text x="-20" y="30" text-anchor="middle" fill="#ccc" font-size="11">Dco-1</text>
      <text x="20" y="30" text-anchor="middle" fill="#ccc" font-size="11">Dco-2</text>
    </g>
    <text x="140" y="18" text-anchor="middle" fill="#fff" font-size="14">HPF</text>
    <g transform="translate(140,84)">
    <line x1="-18.38" y1="18.38" x2="-22.63" y2="22.63" stroke="#aaa" stroke-width="1" stroke-linecap="round"/>
    <line x1="-24.73" y1="8.03" x2="-30.43" y2="9.89" stroke="#aaa" stroke-width="1" stroke-linecap="round"/>
    <line x1="-25.68" y1="-4.07" x2="-31.61" y2="-5.01" stroke="#aaa" stroke-width="1" stroke-linecap="round"/>
    <line x1="-21.03" y1="-15.28" x2="-25.89" y2="-18.81" stroke="#aaa" stroke-width="1" stroke-linecap="round"/>
    <line x1="-11.80" y1="-23.17" x2="-14.53" y2="-28.51" stroke="#aaa" stroke-width="1" stroke-linecap="round"/>
    <line x1="0.00" y1="-26.00" x2="0.00" y2="-32.00" stroke="#aaa" stroke-width="1" stroke-linecap="round"/>
    <line x1="11.80" y1="-23.17" x2="14.53" y2="-28.51" stroke="#aaa" stroke-width="1" stroke-linecap="round"/>
    <line x1="21.03" y1="-15.28" x2="25.89" y2="-18.81" stroke="#aaa" stroke-width="1" stroke-linecap="round"/>
    <line x1="25.68" y1="-4.07" x2="31.61" y2="-5.01" stroke="#aaa" stroke-width="1" stroke-linecap="round"/>
    <line x1="24.73" y1="8.03" x2="30.43" y2="9.89" stroke="#aaa" stroke-width="1" stroke-linecap="round"/>
    <line x1="18.38" y1="18.38" x2="22.63" y2="22.63" stroke="#aaa" stroke-width="1" stroke-linecap="round"/>
      <g class="knob">
      <circle cx="0" cy="0" r="18" fill="#c8c8c8" stroke="#555" stroke-width="1.5"/>
      <line x1="0" y1="-13" x2="0" y2="-18" stroke="#1a1a1a" stroke-width="3.5" stroke-linecap="round"/>
      <line x1="0" y1="-4" x2="0" y2="-13" stroke="#888" stroke-width="3.5" stroke-linecap="round"/>
    </g>
      <text x="-20" y="24" text-anchor="middle" fill="#ccc" font-size="10">0</text>
      <text x="0" y="-25" text-anchor="middle" fill="#ccc" font-size="10">5</text>
      <text x="20" y="24" text-anchor="middle" fill="#ccc" font-size="10">10</text>
    </g>
    <line x1="205" y1="0" x2="205" y2="400" stroke="#ccc" stroke-width="1.5"/>
    <text x="261" y="50" text-anchor="middle" fill="#fff" font-size="14">Mode</text>
    <rect x="248" y="61" width="26" height="48" fill="#111" stroke="#777" stroke-width="1" rx="2"/>
    <rect x="250" y="63" width="22" height="17" fill="#d0d0d0" rx="1"/>
    <rect x="250" y="82" width="22" height="14" fill="#999" rx="1"/>
    <rect x="250" y="97" width="22" height="9" fill="#555" rx="1"/>
    <polyline points="280,68 284,68 288,60 292,67 297,67" fill="none" stroke="#ccc" stroke-width="1.2" stroke-linecap="round" stroke-linejoin="round"/>
    <text x="299" y="68" fill="#ccc" font-size="11" text-anchor="start">ENV</text>
    <polyline points="280,96 284,96 284,88 293,88 293,96 297,96" fill="none" stroke="#ccc" stroke-width="1.2" stroke-linecap="round" stroke-linejoin="round"/>
    <text x="299" y="100" fill="#ccc" font-size="11" text-anchor="start">Gate</text>
    <text x="55" y="142" text-anchor="middle" fill="#fff" font-size="14">Cutoff Freq</text>
    <g transform="translate(55,196)">
    <line x1="-18.38" y1="18.38" x2="-22.63" y2="22.63" stroke="#aaa" stroke-width="1" stroke-linecap="round"/>
    <line x1="-24.73" y1="8.03" x2="-30.43" y2="9.89" stroke="#aaa" stroke-width="1" stroke-linecap="round"/>
    <line x1="-25.68" y1="-4.07" x2="-31.61" y2="-5.01" stroke="#aaa" stroke-width="1" stroke-linecap="round"/>
    <line x1="-21.03" y1="-15.28" x2="-25.89" y2="-18.81" stroke="#aaa" stroke-width="1" stroke-linecap="round"/>
    <line x1="-11.80" y1="-23.17" x2="-14.53" y2="-28.51" stroke="#aaa" stroke-width="1" stroke-linecap="round"/>
    <line x1="0.00" y1="-26.00" x2="0.00" y2="-32.00" stroke="#aaa" stroke-width="1" stroke-linecap="round"/>
    <line x1="11.80" y1="-23.17" x2="14.53" y2="-28.51" stroke="#aaa" stroke-width="1" stroke-linecap="round"/>
    <line x1="21.03" y1="-15.28" x2="25.89" y2="-18.81" stroke="#aaa" stroke-width="1" stroke-linecap="round"/>
    <line x1="25.68" y1="-4.07" x2="31.61" y2="-5.01" stroke="#aaa" stroke-width="1" stroke-linecap="round"/>
    <line x1="24.73" y1="8.03" x2="30.43" y2="9.89" stroke="#aaa" stroke-width="1" stroke-linecap="round"/>
    <line x1="18.38" y1="18.38" x2="22.63" y2="22.63" stroke="#aaa" stroke-width="1" stroke-linecap="round"/>
      <g class="knob">
      <circle cx="0" cy="0" r="18" fill="#c8c8c8" stroke="#555" stroke-width="1.5"/>
      <line x1="0" y1="-13" x2="0" y2="-18" stroke="#1a1a1a" stroke-width="3.5" stroke-linecap="round"/>
      <line x1="0" y1="-4" x2="0" y2="-13" stroke="#888" stroke-width="3.5" stroke-linecap="round"/>
    </g>
      <text x="-20" y="24" text-anchor="middle" fill="#ccc" font-size="10">0</text>
      <text x="0" y="-25" text-anchor="middle" fill="#ccc" font-size="10">5</text>
      <text x="20" y="24" text-anchor="middle" fill="#ccc" font-size="10">10</text>
    </g>
    <text x="140" y="142" text-anchor="middle" fill="#fff" font-size="14">Resonance</text>
    <g transform="translate(140,196)">
    <line x1="-18.38" y1="18.38" x2="-22.63" y2="22.63" stroke="#aaa" stroke-width="1" stroke-linecap="round"/>
    <line x1="-24.73" y1="8.03" x2="-30.43" y2="9.89" stroke="#aaa" stroke-width="1" stroke-linecap="round"/>
    <line x1="-25.68" y1="-4.07" x2="-31.61" y2="-5.01" stroke="#aaa" stroke-width="1" stroke-linecap="round"/>
    <line x1="-21.03" y1="-15.28" x2="-25.89" y2="-18.81" stroke="#aaa" stroke-width="1" stroke-linecap="round"/>
    <line x1="-11.80" y1="-23.17" x2="-14.53" y2="-28.51" stroke="#aaa" stroke-width="1" stroke-linecap="round"/>
    <line x1="0.00" y1="-26.00" x2="0.00" y2="-32.00" stroke="#aaa" stroke-width="1" stroke-linecap="round"/>
    <line x1="11.80" y1="-23.17" x2="14.53" y2="-28.51" stroke="#aaa" stroke-width="1" stroke-linecap="round"/>
    <line x1="21.03" y1="-15.28" x2="25.89" y2="-18.81" stroke="#aaa" stroke-width="1" stroke-linecap="round"/>
    <line x1="25.68" y1="-4.07" x2="31.61" y2="-5.01" stroke="#aaa" stroke-width="1" stroke-linecap="round"/>
    <line x1="24.73" y1="8.03" x2="30.43" y2="9.89" stroke="#aaa" stroke-width="1" stroke-linecap="round"/>
    <line x1="18.38" y1="18.38" x2="22.63" y2="22.63" stroke="#aaa" stroke-width="1" stroke-linecap="round"/>
      <g class="knob">
      <circle cx="0" cy="0" r="18" fill="#c8c8c8" stroke="#555" stroke-width="1.5"/>
      <line x1="0" y1="-13" x2="0" y2="-18" stroke="#1a1a1a" stroke-width="3.5" stroke-linecap="round"/>
      <line x1="0" y1="-4" x2="0" y2="-13" stroke="#888" stroke-width="3.5" stroke-linecap="round"/>
    </g>
      <text x="-20" y="24" text-anchor="middle" fill="#ccc" font-size="10">0</text>
      <text x="0" y="-25" text-anchor="middle" fill="#ccc" font-size="10">5</text>
      <text x="20" y="24" text-anchor="middle" fill="#ccc" font-size="10">10</text>
    </g>
    <text x="261" y="142" text-anchor="middle" fill="#fff" font-size="14">Level</text>
    <g transform="translate(261,196)">
    <line x1="-18.38" y1="18.38" x2="-22.63" y2="22.63" stroke="#aaa" stroke-width="1" stroke-linecap="round"/>
    <line x1="-24.73" y1="8.03" x2="-30.43" y2="9.89" stroke="#aaa" stroke-width="1" stroke-linecap="round"/>
    <line x1="-25.68" y1="-4.07" x2="-31.61" y2="-5.01" stroke="#aaa" stroke-width="1" stroke-linecap="round"/>
    <line x1="-21.03" y1="-15.28" x2="-25.89" y2="-18.81" stroke="#aaa" stroke-width="1" stroke-linecap="round"/>
    <line x1="-11.80" y1="-23.17" x2="-14.53" y2="-28.51" stroke="#aaa" stroke-width="1" stroke-linecap="round"/>
    <line x1="0.00" y1="-26.00" x2="0.00" y2="-32.00" stroke="#aaa" stroke-width="1" stroke-linecap="round"/>
    <line x1="11.80" y1="-23.17" x2="14.53" y2="-28.51" stroke="#aaa" stroke-width="1" stroke-linecap="round"/>
    <line x1="21.03" y1="-15.28" x2="25.89" y2="-18.81" stroke="#aaa" stroke-width="1" stroke-linecap="round"/>
    <line x1="25.68" y1="-4.07" x2="31.61" y2="-5.01" stroke="#aaa" stroke-width="1" stroke-linecap="round"/>
    <line x1="24.73" y1="8.03" x2="30.43" y2="9.89" stroke="#aaa" stroke-width="1" stroke-linecap="round"/>
    <line x1="18.38" y1="18.38" x2="22.63" y2="22.63" stroke="#aaa" stroke-width="1" stroke-linecap="round"/>
      <g class="knob">
      <circle cx="0" cy="0" r="18" fill="#c8c8c8" stroke="#555" stroke-width="1.5"/>
      <line x1="0" y1="-13" x2="0" y2="-18" stroke="#1a1a1a" stroke-width="3.5" stroke-linecap="round"/>
      <line x1="0" y1="-4" x2="0" y2="-13" stroke="#888" stroke-width="3.5" stroke-linecap="round"/>
    </g>
      <text x="-20" y="24" text-anchor="middle" fill="#ccc" font-size="10">0</text>
      <text x="0" y="-25" text-anchor="middle" fill="#ccc" font-size="10">5</text>
      <text x="20" y="24" text-anchor="middle" fill="#ccc" font-size="10">10</text>
    </g>
    <text x="55" y="244" text-anchor="middle" fill="#fff" font-size="14">LFO Mod</text>
    <g transform="translate(55,295)">
    <line x1="-18.38" y1="18.38" x2="-22.63" y2="22.63" stroke="#aaa" stroke-width="1" stroke-linecap="round"/>
    <line x1="-24.73" y1="8.03" x2="-30.43" y2="9.89" stroke="#aaa" stroke-width="1" stroke-linecap="round"/>
    <line x1="-25.68" y1="-4.07" x2="-31.61" y2="-5.01" stroke="#aaa" stroke-width="1" stroke-linecap="round"/>
    <line x1="-21.03" y1="-15.28" x2="-25.89" y2="-18.81" stroke="#aaa" stroke-width="1" stroke-linecap="round"/>
    <line x1="-11.80" y1="-23.17" x2="-14.53" y2="-28.51" stroke="#aaa" stroke-width="1" stroke-linecap="round"/>
    <line x1="0.00" y1="-26.00" x2="0.00" y2="-32.00" stroke="#aaa" stroke-width="1" stroke-linecap="round"/>
    <line x1="11.80" y1="-23.17" x2="14.53" y2="-28.51" stroke="#aaa" stroke-width="1" stroke-linecap="round"/>
    <line x1="21.03" y1="-15.28" x2="25.89" y2="-18.81" stroke="#aaa" stroke-width="1" stroke-linecap="round"/>
    <line x1="25.68" y1="-4.07" x2="31.61" y2="-5.01" stroke="#aaa" stroke-width="1" stroke-linecap="round"/>
    <line x1="24.73" y1="8.03" x2="30.43" y2="9.89" stroke="#aaa" stroke-width="1" stroke-linecap="round"/>
    <line x1="18.38" y1="18.38" x2="22.63" y2="22.63" stroke="#aaa" stroke-width="1" stroke-linecap="round"/>
      <g class="knob">
      <circle cx="0" cy="0" r="18" fill="#c8c8c8" stroke="#555" stroke-width="1.5"/>
      <line x1="0" y1="-13" x2="0" y2="-18" stroke="#1a1a1a" stroke-width="3.5" stroke-linecap="round"/>
      <line x1="0" y1="-4" x2="0" y2="-13" stroke="#888" stroke-width="3.5" stroke-linecap="round"/>
    </g>
      <text x="-20" y="24" text-anchor="middle" fill="#ccc" font-size="10">0</text>
      <text x="0" y="-25" text-anchor="middle" fill="#ccc" font-size="10">5</text>
      <text x="20" y="24" text-anchor="middle" fill="#ccc" font-size="10">10</text>
    </g>
    <text x="140" y="244" text-anchor="middle" fill="#fff" font-size="14">ENV Mod</text>
    <g transform="translate(140,295)">
    <line x1="-18.38" y1="18.38" x2="-22.63" y2="22.63" stroke="#aaa" stroke-width="1" stroke-linecap="round"/>
    <line x1="-24.73" y1="8.03" x2="-30.43" y2="9.89" stroke="#aaa" stroke-width="1" stroke-linecap="round"/>
    <line x1="-25.68" y1="-4.07" x2="-31.61" y2="-5.01" stroke="#aaa" stroke-width="1" stroke-linecap="round"/>
    <line x1="-21.03" y1="-15.28" x2="-25.89" y2="-18.81" stroke="#aaa" stroke-width="1" stroke-linecap="round"/>
    <line x1="-11.80" y1="-23.17" x2="-14.53" y2="-28.51" stroke="#aaa" stroke-width="1" stroke-linecap="round"/>
    <line x1="0.00" y1="-26.00" x2="0.00" y2="-32.00" stroke="#aaa" stroke-width="1" stroke-linecap="round"/>
    <line x1="11.80" y1="-23.17" x2="14.53" y2="-28.51" stroke="#aaa" stroke-width="1" stroke-linecap="round"/>
    <line x1="21.03" y1="-15.28" x2="25.89" y2="-18.81" stroke="#aaa" stroke-width="1" stroke-linecap="round"/>
    <line x1="25.68" y1="-4.07" x2="31.61" y2="-5.01" stroke="#aaa" stroke-width="1" stroke-linecap="round"/>
    <line x1="24.73" y1="8.03" x2="30.43" y2="9.89" stroke="#aaa" stroke-width="1" stroke-linecap="round"/>
    <line x1="18.38" y1="18.38" x2="22.63" y2="22.63" stroke="#aaa" stroke-width="1" stroke-linecap="round"/>
      <g class="knob">
      <circle cx="0" cy="0" r="18" fill="#c8c8c8" stroke="#555" stroke-width="1.5"/>
      <line x1="0" y1="-13" x2="0" y2="-18" stroke="#1a1a1a" stroke-width="3.5" stroke-linecap="round"/>
      <line x1="0" y1="-4" x2="0" y2="-13" stroke="#888" stroke-width="3.5" stroke-linecap="round"/>
    </g>
      <text x="-20" y="24" text-anchor="middle" fill="#ccc" font-size="10">0</text>
      <text x="0" y="-25" text-anchor="middle" fill="#ccc" font-size="10">5</text>
      <text x="20" y="24" text-anchor="middle" fill="#ccc" font-size="10">10</text>
    </g>
    <text x="55" y="352" text-anchor="middle" fill="#fff" font-size="14">Pitch Follow</text>
    <g transform="translate(55,390)">
      <line x1="0" y1="-18" x2="0" y2="-23" stroke="#aaa" stroke-width="1.2" transform="rotate(-140)"/>
      <line x1="0" y1="-18" x2="0" y2="-21" stroke="#666" stroke-width="0.9" transform="rotate(-112)"/>
      <line x1="0" y1="-18" x2="0" y2="-21" stroke="#666" stroke-width="0.9" transform="rotate(-84)"/>
      <line x1="0" y1="-18" x2="0" y2="-21" stroke="#666" stroke-width="0.9" transform="rotate(-56)"/>
      <line x1="0" y1="-18" x2="0" y2="-21" stroke="#666" stroke-width="0.9" transform="rotate(-28)"/>
      <line x1="0" y1="-18" x2="0" y2="-23" stroke="#aaa" stroke-width="1.2" transform="rotate(0)"/>
      <line x1="0" y1="-18" x2="0" y2="-21" stroke="#666" stroke-width="0.9" transform="rotate(28)"/>
      <line x1="0" y1="-18" x2="0" y2="-21" stroke="#666" stroke-width="0.9" transform="rotate(56)"/>
      <line x1="0" y1="-18" x2="0" y2="-21" stroke="#666" stroke-width="0.9" transform="rotate(84)"/>
      <line x1="0" y1="-18" x2="0" y2="-21" stroke="#666" stroke-width="0.9" transform="rotate(112)"/>
      <line x1="0" y1="-18" x2="0" y2="-23" stroke="#aaa" stroke-width="1.2" transform="rotate(140)"/>
      <g class="knob">
      <circle cx="0" cy="0" r="18" fill="#c8c8c8" stroke="#555" stroke-width="1.5"/>
      <line x1="0" y1="-13" x2="0" y2="-18" stroke="#1a1a1a" stroke-width="3.5" stroke-linecap="round"/>
      <line x1="0" y1="-4" x2="0" y2="-13" stroke="#888" stroke-width="3.5" stroke-linecap="round"/>
    </g>
      <text x="-20" y="24" text-anchor="middle" fill="#ccc" font-size="10">0</text>
      <text x="24" y="6" text-anchor="start" fill="#ccc" font-size="10">100%</text>
    </g>
    <line x1="140" y1="325" x2="140" y2="370" stroke="#ccc" stroke-width="1.5"/>
    <polygon points="140,321 135,333 145,333" fill="#ccc"/>
    <rect x="126" y="370" width="26" height="48" fill="#111" stroke="#777" stroke-width="1" rx="2"/>
    <rect x="128" y="372" width="22" height="17" fill="#d0d0d0" rx="1"/>
    <rect x="128" y="391" width="22" height="14" fill="#999" rx="1"/>
    <rect x="128" y="406" width="22" height="9" fill="#555" rx="1"/>
    <polyline points="158,380 162,380 165,374 168,380 173,380" fill="none" stroke="#ccc" stroke-width="1.2" stroke-linecap="round" stroke-linejoin="round"/>
    <polyline points="158,414 162,414 165,420 168,414 173,414" fill="none" stroke="#ccc" stroke-width="1.2" stroke-linecap="round" stroke-linejoin="round"/>
    <text x="261" y="352" text-anchor="middle" fill="#fff" font-size="14">Chorus</text>
    <rect x="248" y="370" width="26" height="48" fill="#111" stroke="#777" stroke-width="1" rx="2"/>
    <rect x="250" y="372" width="22" height="17" fill="#d0d0d0" rx="1"/>
    <rect x="250" y="391" width="22" height="14" fill="#999" rx="1"/>
    <rect x="250" y="406" width="22" height="9" fill="#555" rx="1"/>
    <text x="280" y="382" fill="#ccc" font-size="11" text-anchor="start">On</text>
    <text x="280" y="409" fill="#ccc" font-size="11" text-anchor="start">Off</text>
  </g>

  <!-- RIGHT PANEL: Patch readout aligned with Mode switch (abs y=85..133) -->
  <text x="1008" y="76" text-anchor="end" fill="#fff" font-size="14">Patch</text>
  <polygon points="790,85 1018,85 994,133 766,133" fill="#cc2222"/>
  <text x="800" y="116" text-anchor="start" fill="#fff" font-size="14">C5: Saw Wave Goodbye</text>
  <image href="assets/jp-logo.png" x="770" y="188" width="248" height="160" preserveAspectRatio="xMidYMid meet"/>


  <!-- BOTTOM ROW -->
  <line x1="351" y1="472" x2="351" y2="594" stroke="#ccc" stroke-width="1.5"/>
  <text x="185" y="478" text-anchor="middle" fill="#fff" font-size="14">LFO</text>
  <text x="555" y="478" text-anchor="middle" fill="#fff" font-size="16">Envelope</text>
  <text x="55" y="496" text-anchor="middle" fill="#fff" font-size="14">Waveform</text>
  <!-- LFO Waveform markers: arc at -60° / 0° / +60° (r=38 from knob centre 55,545) -->
  <!-- sine -->
  <g transform="translate(22,526)">
    <path d="M -5 0 Q -2.5 -5 0 0 Q 2.5 5 5 0" fill="none" stroke="#ccc" stroke-width="1.2" stroke-linecap="round" stroke-linejoin="round"/>
  </g>
  <circle cx="30" cy="533" r="1.5" fill="#ccc"/>
  <!-- square -->
  <g transform="translate(55,507)">
    <polyline points="-5,4 -5,-4 0,-4 0,4 5,4 5,-4" fill="none" stroke="#ccc" stroke-width="1.2" stroke-linecap="round" stroke-linejoin="round"/>
  </g>
  <circle cx="55" cy="515" r="1.5" fill="#ccc"/>
  <circle cx="80" cy="533" r="1.5" fill="#ccc"/>
  <text x="85" y="537" text-anchor="start" fill="#ccc" font-size="11">Random</text>
  <g transform="translate(55,545)"><g class="knob">
      <circle cx="0" cy="0" r="22" fill="#c8c8c8" stroke="#555" stroke-width="1.5"/>
      <path d="M 11.50 -19.92 A 23 23 0 0 1 19.92 -11.50 L 17.32 -10.00 A 20 20 0 0 0 10.00 -17.32 Z" fill="#1a1a1a"/>
      <path d="M 19.92 11.50 A 23 23 0 0 1 11.50 19.92 L 10.00 17.32 A 20 20 0 0 0 17.32 10.00 Z" fill="#1a1a1a"/>
      <path d="M -11.50 19.92 A 23 23 0 0 1 -19.92 11.50 L -17.32 10.00 A 20 20 0 0 0 -10.00 17.32 Z" fill="#1a1a1a"/>
      <path d="M -19.92 -11.50 A 23 23 0 0 1 -11.50 -19.92 L -10.00 -17.32 A 20 20 0 0 0 -17.32 -10.00 Z" fill="#1a1a1a"/>
      <line x1="0" y1="-19" x2="0" y2="-24" stroke="#1a1a1a" stroke-width="3.5" stroke-linecap="round"/>
      <line x1="0" y1="-8" x2="0" y2="-19" stroke="#888" stroke-width="3.5" stroke-linecap="round"/>
    </g></g>
  <text x="165" y="496" text-anchor="middle" fill="#fff" font-size="14">Delay Time</text>
  <g transform="translate(165,545)">
    <line x1="-18.38" y1="18.38" x2="-22.63" y2="22.63" stroke="#aaa" stroke-width="1" stroke-linecap="round"/>
    <line x1="-24.73" y1="8.03" x2="-30.43" y2="9.89" stroke="#aaa" stroke-width="1" stroke-linecap="round"/>
    <line x1="-25.68" y1="-4.07" x2="-31.61" y2="-5.01" stroke="#aaa" stroke-width="1" stroke-linecap="round"/>
    <line x1="-21.03" y1="-15.28" x2="-25.89" y2="-18.81" stroke="#aaa" stroke-width="1" stroke-linecap="round"/>
    <line x1="-11.80" y1="-23.17" x2="-14.53" y2="-28.51" stroke="#aaa" stroke-width="1" stroke-linecap="round"/>
    <line x1="0.00" y1="-26.00" x2="0.00" y2="-32.00" stroke="#aaa" stroke-width="1" stroke-linecap="round"/>
    <line x1="11.80" y1="-23.17" x2="14.53" y2="-28.51" stroke="#aaa" stroke-width="1" stroke-linecap="round"/>
    <line x1="21.03" y1="-15.28" x2="25.89" y2="-18.81" stroke="#aaa" stroke-width="1" stroke-linecap="round"/>
    <line x1="25.68" y1="-4.07" x2="31.61" y2="-5.01" stroke="#aaa" stroke-width="1" stroke-linecap="round"/>
    <line x1="24.73" y1="8.03" x2="30.43" y2="9.89" stroke="#aaa" stroke-width="1" stroke-linecap="round"/>
    <line x1="18.38" y1="18.38" x2="22.63" y2="22.63" stroke="#aaa" stroke-width="1" stroke-linecap="round"/>
    <g class="knob">
      <circle cx="0" cy="0" r="18" fill="#c8c8c8" stroke="#555" stroke-width="1.5"/>
      <line x1="0" y1="-13" x2="0" y2="-18" stroke="#1a1a1a" stroke-width="3.5" stroke-linecap="round"/>
      <line x1="0" y1="-4" x2="0" y2="-13" stroke="#888" stroke-width="3.5" stroke-linecap="round"/>
    </g>
    <text x="-20" y="26" text-anchor="middle" fill="#ccc" font-size="10">0</text>
    <text x="0" y="-26" text-anchor="middle" fill="#ccc" font-size="10">5</text>
    <text x="20" y="26" text-anchor="middle" fill="#ccc" font-size="10">10</text>
  </g>
  <text x="275" y="496" text-anchor="middle" fill="#fff" font-size="14">Rate</text>
  <g transform="translate(275,545)">
    <line x1="-18.38" y1="18.38" x2="-22.63" y2="22.63" stroke="#aaa" stroke-width="1" stroke-linecap="round"/>
    <line x1="-24.73" y1="8.03" x2="-30.43" y2="9.89" stroke="#aaa" stroke-width="1" stroke-linecap="round"/>
    <line x1="-25.68" y1="-4.07" x2="-31.61" y2="-5.01" stroke="#aaa" stroke-width="1" stroke-linecap="round"/>
    <line x1="-21.03" y1="-15.28" x2="-25.89" y2="-18.81" stroke="#aaa" stroke-width="1" stroke-linecap="round"/>
    <line x1="-11.80" y1="-23.17" x2="-14.53" y2="-28.51" stroke="#aaa" stroke-width="1" stroke-linecap="round"/>
    <line x1="0.00" y1="-26.00" x2="0.00" y2="-32.00" stroke="#aaa" stroke-width="1" stroke-linecap="round"/>
    <line x1="11.80" y1="-23.17" x2="14.53" y2="-28.51" stroke="#aaa" stroke-width="1" stroke-linecap="round"/>
    <line x1="21.03" y1="-15.28" x2="25.89" y2="-18.81" stroke="#aaa" stroke-width="1" stroke-linecap="round"/>
    <line x1="25.68" y1="-4.07" x2="31.61" y2="-5.01" stroke="#aaa" stroke-width="1" stroke-linecap="round"/>
    <line x1="24.73" y1="8.03" x2="30.43" y2="9.89" stroke="#aaa" stroke-width="1" stroke-linecap="round"/>
    <line x1="18.38" y1="18.38" x2="22.63" y2="22.63" stroke="#aaa" stroke-width="1" stroke-linecap="round"/>
    <g class="knob">
      <circle cx="0" cy="0" r="18" fill="#c8c8c8" stroke="#555" stroke-width="1.5"/>
      <line x1="0" y1="-13" x2="0" y2="-18" stroke="#1a1a1a" stroke-width="3.5" stroke-linecap="round"/>
      <line x1="0" y1="-4" x2="0" y2="-13" stroke="#888" stroke-width="3.5" stroke-linecap="round"/>
    </g>
    <text x="-20" y="26" text-anchor="middle" fill="#ccc" font-size="10">0</text>
    <text x="0" y="-26" text-anchor="middle" fill="#ccc" font-size="10">5</text>
    <text x="20" y="26" text-anchor="middle" fill="#ccc" font-size="10">10</text>
  </g>
  <text x="420" y="496" text-anchor="middle" fill="#fff" font-size="14">Attack</text>
  <g transform="translate(420,545)">
    <line x1="-18.38" y1="18.38" x2="-22.63" y2="22.63" stroke="#aaa" stroke-width="1" stroke-linecap="round"/>
    <line x1="-24.73" y1="8.03" x2="-30.43" y2="9.89" stroke="#aaa" stroke-width="1" stroke-linecap="round"/>
    <line x1="-25.68" y1="-4.07" x2="-31.61" y2="-5.01" stroke="#aaa" stroke-width="1" stroke-linecap="round"/>
    <line x1="-21.03" y1="-15.28" x2="-25.89" y2="-18.81" stroke="#aaa" stroke-width="1" stroke-linecap="round"/>
    <line x1="-11.80" y1="-23.17" x2="-14.53" y2="-28.51" stroke="#aaa" stroke-width="1" stroke-linecap="round"/>
    <line x1="0.00" y1="-26.00" x2="0.00" y2="-32.00" stroke="#aaa" stroke-width="1" stroke-linecap="round"/>
    <line x1="11.80" y1="-23.17" x2="14.53" y2="-28.51" stroke="#aaa" stroke-width="1" stroke-linecap="round"/>
    <line x1="21.03" y1="-15.28" x2="25.89" y2="-18.81" stroke="#aaa" stroke-width="1" stroke-linecap="round"/>
    <line x1="25.68" y1="-4.07" x2="31.61" y2="-5.01" stroke="#aaa" stroke-width="1" stroke-linecap="round"/>
    <line x1="24.73" y1="8.03" x2="30.43" y2="9.89" stroke="#aaa" stroke-width="1" stroke-linecap="round"/>
    <line x1="18.38" y1="18.38" x2="22.63" y2="22.63" stroke="#aaa" stroke-width="1" stroke-linecap="round"/>
    <g class="knob">
      <circle cx="0" cy="0" r="18" fill="#c8c8c8" stroke="#555" stroke-width="1.5"/>
      <line x1="0" y1="-13" x2="0" y2="-18" stroke="#1a1a1a" stroke-width="3.5" stroke-linecap="round"/>
      <line x1="0" y1="-4" x2="0" y2="-13" stroke="#888" stroke-width="3.5" stroke-linecap="round"/>
    </g>
    <text x="-20" y="26" text-anchor="middle" fill="#ccc" font-size="10">0</text>
    <text x="0" y="-26" text-anchor="middle" fill="#ccc" font-size="10">5</text>
    <text x="20" y="26" text-anchor="middle" fill="#ccc" font-size="10">10</text>
  </g>
  <text x="510" y="496" text-anchor="middle" fill="#fff" font-size="14">Decay</text>
  <g transform="translate(510,545)">
    <line x1="-18.38" y1="18.38" x2="-22.63" y2="22.63" stroke="#aaa" stroke-width="1" stroke-linecap="round"/>
    <line x1="-24.73" y1="8.03" x2="-30.43" y2="9.89" stroke="#aaa" stroke-width="1" stroke-linecap="round"/>
    <line x1="-25.68" y1="-4.07" x2="-31.61" y2="-5.01" stroke="#aaa" stroke-width="1" stroke-linecap="round"/>
    <line x1="-21.03" y1="-15.28" x2="-25.89" y2="-18.81" stroke="#aaa" stroke-width="1" stroke-linecap="round"/>
    <line x1="-11.80" y1="-23.17" x2="-14.53" y2="-28.51" stroke="#aaa" stroke-width="1" stroke-linecap="round"/>
    <line x1="0.00" y1="-26.00" x2="0.00" y2="-32.00" stroke="#aaa" stroke-width="1" stroke-linecap="round"/>
    <line x1="11.80" y1="-23.17" x2="14.53" y2="-28.51" stroke="#aaa" stroke-width="1" stroke-linecap="round"/>
    <line x1="21.03" y1="-15.28" x2="25.89" y2="-18.81" stroke="#aaa" stroke-width="1" stroke-linecap="round"/>
    <line x1="25.68" y1="-4.07" x2="31.61" y2="-5.01" stroke="#aaa" stroke-width="1" stroke-linecap="round"/>
    <line x1="24.73" y1="8.03" x2="30.43" y2="9.89" stroke="#aaa" stroke-width="1" stroke-linecap="round"/>
    <line x1="18.38" y1="18.38" x2="22.63" y2="22.63" stroke="#aaa" stroke-width="1" stroke-linecap="round"/>
    <g class="knob">
      <circle cx="0" cy="0" r="18" fill="#c8c8c8" stroke="#555" stroke-width="1.5"/>
      <line x1="0" y1="-13" x2="0" y2="-18" stroke="#1a1a1a" stroke-width="3.5" stroke-linecap="round"/>
      <line x1="0" y1="-4" x2="0" y2="-13" stroke="#888" stroke-width="3.5" stroke-linecap="round"/>
    </g>
    <text x="-20" y="26" text-anchor="middle" fill="#ccc" font-size="10">0</text>
    <text x="0" y="-26" text-anchor="middle" fill="#ccc" font-size="10">5</text>
    <text x="20" y="26" text-anchor="middle" fill="#ccc" font-size="10">10</text>
  </g>
  <text x="600" y="496" text-anchor="middle" fill="#fff" font-size="14">Sustain</text>
  <g transform="translate(690,545)">
    <line x1="-18.38" y1="18.38" x2="-22.63" y2="22.63" stroke="#aaa" stroke-width="1" stroke-linecap="round"/>
    <line x1="-24.73" y1="8.03" x2="-30.43" y2="9.89" stroke="#aaa" stroke-width="1" stroke-linecap="round"/>
    <line x1="-25.68" y1="-4.07" x2="-31.61" y2="-5.01" stroke="#aaa" stroke-width="1" stroke-linecap="round"/>
    <line x1="-21.03" y1="-15.28" x2="-25.89" y2="-18.81" stroke="#aaa" stroke-width="1" stroke-linecap="round"/>
    <line x1="-11.80" y1="-23.17" x2="-14.53" y2="-28.51" stroke="#aaa" stroke-width="1" stroke-linecap="round"/>
    <line x1="0.00" y1="-26.00" x2="0.00" y2="-32.00" stroke="#aaa" stroke-width="1" stroke-linecap="round"/>
    <line x1="11.80" y1="-23.17" x2="14.53" y2="-28.51" stroke="#aaa" stroke-width="1" stroke-linecap="round"/>
    <line x1="21.03" y1="-15.28" x2="25.89" y2="-18.81" stroke="#aaa" stroke-width="1" stroke-linecap="round"/>
    <line x1="25.68" y1="-4.07" x2="31.61" y2="-5.01" stroke="#aaa" stroke-width="1" stroke-linecap="round"/>
    <line x1="24.73" y1="8.03" x2="30.43" y2="9.89" stroke="#aaa" stroke-width="1" stroke-linecap="round"/>
    <line x1="18.38" y1="18.38" x2="22.63" y2="22.63" stroke="#aaa" stroke-width="1" stroke-linecap="round"/>
    <g class="knob">
      <circle cx="0" cy="0" r="18" fill="#c8c8c8" stroke="#555" stroke-width="1.5"/>
      <line x1="0" y1="-13" x2="0" y2="-18" stroke="#1a1a1a" stroke-width="3.5" stroke-linecap="round"/>
      <line x1="0" y1="-4" x2="0" y2="-13" stroke="#888" stroke-width="3.5" stroke-linecap="round"/>
    </g>
    <text x="-20" y="26" text-anchor="middle" fill="#ccc" font-size="10">0</text>
    <text x="0" y="-26" text-anchor="middle" fill="#ccc" font-size="10">5</text>
    <text x="20" y="26" text-anchor="middle" fill="#ccc" font-size="10">10</text>
  </g>
  <text x="690" y="496" text-anchor="middle" fill="#fff" font-size="14">Release</text>
  <g transform="translate(600,545)">
    <line x1="-18.38" y1="18.38" x2="-22.63" y2="22.63" stroke="#aaa" stroke-width="1" stroke-linecap="round"/>
    <line x1="-24.73" y1="8.03" x2="-30.43" y2="9.89" stroke="#aaa" stroke-width="1" stroke-linecap="round"/>
    <line x1="-25.68" y1="-4.07" x2="-31.61" y2="-5.01" stroke="#aaa" stroke-width="1" stroke-linecap="round"/>
    <line x1="-21.03" y1="-15.28" x2="-25.89" y2="-18.81" stroke="#aaa" stroke-width="1" stroke-linecap="round"/>
    <line x1="-11.80" y1="-23.17" x2="-14.53" y2="-28.51" stroke="#aaa" stroke-width="1" stroke-linecap="round"/>
    <line x1="0.00" y1="-26.00" x2="0.00" y2="-32.00" stroke="#aaa" stroke-width="1" stroke-linecap="round"/>
    <line x1="11.80" y1="-23.17" x2="14.53" y2="-28.51" stroke="#aaa" stroke-width="1" stroke-linecap="round"/>
    <line x1="21.03" y1="-15.28" x2="25.89" y2="-18.81" stroke="#aaa" stroke-width="1" stroke-linecap="round"/>
    <line x1="25.68" y1="-4.07" x2="31.61" y2="-5.01" stroke="#aaa" stroke-width="1" stroke-linecap="round"/>
    <line x1="24.73" y1="8.03" x2="30.43" y2="9.89" stroke="#aaa" stroke-width="1" stroke-linecap="round"/>
    <line x1="18.38" y1="18.38" x2="22.63" y2="22.63" stroke="#aaa" stroke-width="1" stroke-linecap="round"/>
    <g class="knob">
      <circle cx="0" cy="0" r="18" fill="#c8c8c8" stroke="#555" stroke-width="1.5"/>
      <line x1="0" y1="-13" x2="0" y2="-18" stroke="#1a1a1a" stroke-width="3.5" stroke-linecap="round"/>
      <line x1="0" y1="-4" x2="0" y2="-13" stroke="#888" stroke-width="3.5" stroke-linecap="round"/>
    </g>
    <text x="-20" y="26" text-anchor="middle" fill="#ccc" font-size="10">0</text>
    <text x="0" y="-26" text-anchor="middle" fill="#ccc" font-size="10">5</text>
    <text x="20" y="26" text-anchor="middle" fill="#ccc" font-size="10">10</text>
  </g>
  <text x="794" y="496" text-anchor="middle" fill="#fff" font-size="14">Manual</text>
  <rect x="765" y="516" width="58" height="58" fill="#c8c8c8" stroke="#555" stroke-width="1.5" rx="2"/>
  <rect x="783" y="516" width="22" height="15" fill="#333" rx="1"/>
  <rect x="783" y="516" width="22" height="4" fill="#d8d8d8"/>
  <text x="872" y="496" text-anchor="middle" fill="#fff" font-size="14">Write</text>
  <rect x="843" y="516" width="58" height="58" fill="#c8c8c8" stroke="#555" stroke-width="1.5" rx="2"/>
  <rect x="861" y="516" width="22" height="15" fill="#333" rx="1"/>
  <rect x="861" y="516" width="22" height="4" fill="#d8d8d8"/>

  <!-- RED BOTTOM STRIP -->
  <rect x="0" y="596" width="1050" height="24" fill="#cc2222"/>

</svg>
